<svg width="16" height="16" viewBox="0 0 16 16" fill="none" xmlns="http://www.w3.org/2000/svg">
<path fill-rule="evenodd" clip-rule="evenodd" d="M7.99998 0.637939C3.8316 0.637939 0.451477 4.01731 0.451477 8.18644C0.451477 11.5217 2.61435 14.3511 5.6136 15.3493C5.99073 15.4193 6.12923 15.1856 6.12923 14.9862C6.12923 14.8062 6.12223 14.2116 6.11898 13.5808C4.01898 14.0374 3.57585 12.6902 3.57585 12.6902C3.23248 11.8177 2.73773 11.5857 2.73773 11.5857C2.05273 11.1172 2.78935 11.1269 2.78935 11.1269C3.54723 11.1801 3.94648 11.9048 3.94648 11.9048C4.61973 13.0586 5.71235 12.7251 6.1431 12.5323C6.21085 12.0444 6.40648 11.7113 6.62235 11.5228C4.94573 11.3322 3.1831 10.6848 3.1831 7.79244C3.1831 6.96831 3.4781 6.29494 3.96098 5.76619C3.88248 5.57619 3.6241 4.80844 4.03398 3.76869C4.03398 3.76869 4.66773 3.56581 6.11023 4.54244C6.71248 4.37506 7.35835 4.29094 7.99998 4.28806C8.64123 4.29094 9.28748 4.37481 9.89085 4.54219C11.3316 3.56556 11.9646 3.76844 11.9646 3.76844C12.3755 4.80806 12.1171 5.57594 12.0387 5.76594C12.5227 6.29469 12.8156 6.96806 12.8156 7.79219C12.8156 10.6914 11.0497 11.3297 9.36885 11.5167C9.63973 11.7509 9.88098 12.2104 9.88098 12.9146C9.88098 13.9246 9.87223 14.7374 9.87223 14.9861C9.87223 15.1869 10.0082 15.4223 10.3907 15.3482C13.3882 14.3489 15.5486 11.5204 15.5486 8.18644C15.5485 4.01756 12.1687 0.637939 7.99998 0.637939Z" fill="#181616"/>
</svg>
