<svg width="38" height="33" viewBox="0 0 38 33" fill="none" xmlns="http://www.w3.org/2000/svg">
<path fill-rule="evenodd" clip-rule="evenodd" d="M33.2599 32.8291H4.74645C2.4968 32.8291 0.673096 31.2327 0.673096 29.2634V4.30371C0.673096 2.33444 2.4968 0.738037 4.74645 0.738037H33.2599C35.5096 0.738037 37.3333 2.33444 37.3333 4.30371V29.2634C37.3333 31.2327 35.5096 32.8291 33.2599 32.8291ZM26.7994 28.372H32.2396V18.5893C32.2396 14.4501 29.5591 12.4487 25.8152 12.4487C22.0695 12.4487 20.4931 15.0021 20.4931 15.0021V12.9208H15.2503V28.372H20.4931V20.2611C20.4931 18.0878 21.6359 16.7945 23.8234 16.7945C25.8341 16.7945 26.7994 18.0373 26.7994 20.2611V28.372ZM5.7628 8.04638C5.7628 9.62091 7.20988 10.8976 8.99569 10.8976C10.7815 10.8976 12.2277 9.62091 12.2277 8.04638C12.2277 6.47185 10.7815 5.19518 8.99569 5.19518C7.20988 5.19518 5.7628 6.47185 5.7628 8.04638ZM11.7554 28.372H6.28854V12.9208H11.7554V28.372Z" fill="#181818"/>
</svg>
