<svg width="36" height="29" viewBox="0 0 36 29" fill="none" xmlns="http://www.w3.org/2000/svg">
<path d="M32.4 25.375H28.8V9.51562L18 16.3125L7.2 9.51562V25.375H3.6V3.625H5.76L18 11.3281L30.24 3.625H32.4M32.4 0H3.6C1.602 0 0 1.61312 0 3.625V25.375C0 26.3364 0.379284 27.2584 1.05442 27.9383C1.72955 28.6181 2.64522 29 3.6 29H32.4C33.3548 29 34.2705 28.6181 34.9456 27.9383C35.6207 27.2584 36 26.3364 36 25.375V3.625C36 2.66359 35.6207 1.74156 34.9456 1.06174C34.2705 0.381918 33.3548 0 32.4 0Z" fill="black"/>
</svg>
