<svg width="27" height="22" viewBox="0 0 27 22" fill="none" xmlns="http://www.w3.org/2000/svg">
<path d="M18.9992 4.0992C20.0458 3.73695 20.7566 3.49092 21.0252 3.40042H21.0255L21.1 3.37652C21.3156 3.30736 21.5299 3.25521 21.7444 3.24698C21.9541 3.23893 22.1724 3.27277 22.3934 3.38138L22.3947 3.38201C22.588 3.47631 22.7388 3.65359 22.7903 3.80931C22.846 3.97781 22.8429 4.17355 22.7693 4.44566L22.7672 4.45333L22.7654 4.46107L19.6656 17.5608L19.6589 17.5748L19.6589 17.5748L19.658 17.5767C19.6578 17.5771 19.6576 17.5774 19.6574 17.5779C19.6553 17.582 19.6507 17.5907 19.6434 17.6034C19.6287 17.6288 19.6035 17.6692 19.5667 17.7181C19.4927 17.8165 19.3752 17.9448 19.2056 18.0575C18.8935 18.2645 18.2105 18.4193 17.5137 18.1675L17.5104 18.1663L17.4724 18.1529L13.4933 15.6344L13.2016 15.4498L12.9256 15.6571L10.538 17.4508L10.529 17.4565L10.5246 17.4591C10.5175 17.4631 10.5041 17.4704 10.485 17.4797C10.4464 17.4984 10.387 17.524 10.3124 17.5462C10.1617 17.591 9.96537 17.6175 9.75344 17.5645L9.72461 17.5573L9.69513 17.5536L9.68518 17.5523L9.67818 17.5488L9.63998 17.537C9.63315 17.5349 9.62677 17.5329 9.6208 17.5309L10.4567 16.9024L13.156 14.8728L17.7894 17.8035L17.8418 17.8366L17.9008 17.856C18.0447 17.9032 18.1926 17.9422 18.3364 17.9396C18.5281 17.936 18.6525 17.861 18.7169 17.8187C18.7898 17.7712 18.8461 17.7192 18.8898 17.6685C18.9278 17.6244 18.9627 17.5706 18.9527 17.585L19.0065 17.5074L19.0282 17.4156L22.1109 4.40141L22.1244 4.34457V4.33797C22.1313 4.30486 22.1369 4.26904 22.139 4.23072C22.14 4.21434 22.1401 4.20057 22.1401 4.19047L22.14 4.1846L22.1799 3.65726H21.6406L21.6204 3.65733C21.6139 3.6574 21.5993 3.65759 21.5821 3.65877C21.5635 3.66005 21.5348 3.66291 21.5007 3.67058C21.4645 3.67873 21.4354 3.68931 21.415 3.69772C21.4116 3.69912 21.408 3.70064 21.4047 3.70208L21.3961 3.70499C21.3222 3.72996 20.0537 4.16576 18.3421 4.75905L18.3415 4.75928C16.9074 5.25862 15.1125 5.8823 13.2683 6.5231C12.9109 6.64731 12.5516 6.77216 12.1927 6.89687C9.98563 7.6636 7.7965 8.42428 6.15913 8.99328L4.18361 9.67982L3.63134 9.87176L3.48597 9.92228L3.44872 9.93523L3.44427 9.93678L3.42646 9.94229L3.40466 9.94903L3.38357 9.95773L3.35753 9.96847L3.52215 10.3676V10.4388V10.4414H3.03517V10.4441V10.8242L3.40136 10.9259L7.98171 12.1981L8.06506 12.542L8.62926 12.2536L16.3109 8.32759L14.3754 9.81579L11.6871 11.8829L10.8086 12.5585L10.5632 12.7472L10.4986 12.7968L10.4821 12.8096L10.4779 12.8128L10.4768 12.8136L10.4766 12.8138C10.4765 12.8138 10.4765 12.8139 10.7813 13.2102L10.4765 12.8139L10.3255 12.9299L10.29 13.117L9.66504 16.4095L9.4681 17.4469C9.4406 17.4254 9.41593 17.4023 9.39342 17.3776L9.38801 17.3716L9.3824 17.3658C9.26483 17.2446 9.14872 17.066 9.01244 16.7067L9.01165 16.7047C8.85208 16.2895 8.37827 15.0113 8.00136 13.9945C7.7777 13.3911 7.58816 12.8798 7.51864 12.6954L7.42911 12.458L7.18465 12.3901L3.11564 11.2595L3.07544 11.2483C3.05327 11.2408 3.02302 11.23 2.98698 11.2159C2.90082 11.1821 2.78786 11.132 2.6753 11.0658L2.67442 11.0653C2.42327 10.9183 2.21014 10.7242 2.17087 10.4636L2.17049 10.4612C2.15308 10.3493 2.202 10.2041 2.29313 10.0938L1.909 9.77661L2.29313 10.0938C2.39129 9.97487 2.50773 9.89369 2.633 9.82619L2.63306 9.8263L2.64253 9.82093C2.76901 9.74919 2.89607 9.69539 2.99304 9.65938C3.03951 9.64213 3.07756 9.62953 3.10333 9.62142L3.10352 9.62198L3.1556 9.60587L3.15516 9.60434L3.16981 9.59924L3.31506 9.54872L3.86695 9.35679L5.8413 8.67027C7.47783 8.10127 9.6661 7.34061 11.8731 6.5739L11.8731 6.57389C12.9157 6.21158 13.962 5.84806 14.9566 5.5025C16.0702 5.1156 17.119 4.75122 18.0251 4.43631C18.3755 4.31511 18.701 4.20243 18.9992 4.0992ZM9.63945 17.5387C9.65076 17.5417 9.66449 17.5459 9.6795 17.5516L9.67752 17.5513C9.66608 17.5472 9.65331 17.5431 9.63931 17.5392C9.63871 17.539 9.63811 17.5388 9.63751 17.5387L9.63759 17.5382C9.6382 17.5384 9.63882 17.5385 9.63945 17.5387ZM3.52215 10.2937V10.357L3.38155 9.95932L3.38393 9.9586L3.38781 9.95743C3.39029 9.95671 3.39842 9.95435 3.40949 9.95174C3.41339 9.95082 3.41986 9.94935 3.42814 9.94774C3.4313 9.94713 3.43472 9.9465 3.43836 9.94587L3.52215 10.187V10.2516V10.2937ZM3.52215 10.1594L3.45529 9.94326C3.4706 9.94118 3.49425 9.93875 3.52215 9.93875V10.1594ZM22.1399 4.17507C22.1399 4.17507 22.1399 4.17512 22.1399 4.17522L22.1399 4.17512V4.17507ZM3.13877 9.61075C3.13914 9.61065 3.13924 9.61062 3.13907 9.61067L3.13877 9.61075Z" fill="#0D0D0D"/>
<path d="M18.9992 4.0992C20.0458 3.73695 20.7566 3.49092 21.0252 3.40042H21.0255L21.1 3.37652C21.3156 3.30736 21.5299 3.25521 21.7444 3.24698C21.9541 3.23893 22.1724 3.27277 22.3934 3.38138L22.3947 3.38201C22.588 3.47631 22.7388 3.65359 22.7903 3.80931C22.846 3.97781 22.8429 4.17355 22.7693 4.44566L22.7672 4.45333L22.7654 4.46107L19.6656 17.5608L19.6589 17.5748L19.6589 17.5748L19.658 17.5767C19.6578 17.5771 19.6576 17.5774 19.6574 17.5779C19.6553 17.582 19.6507 17.5907 19.6434 17.6034C19.6287 17.6288 19.6035 17.6692 19.5667 17.7181C19.4927 17.8165 19.3752 17.9448 19.2056 18.0575C18.8935 18.2645 18.2105 18.4193 17.5137 18.1675L17.5104 18.1663L17.4724 18.1529L13.4933 15.6344L13.2016 15.4498L12.9256 15.6571L10.538 17.4508L10.529 17.4565L10.5246 17.4591C10.5175 17.4631 10.5041 17.4704 10.485 17.4797C10.4464 17.4984 10.387 17.524 10.3124 17.5462C10.1617 17.591 9.96537 17.6175 9.75344 17.5645L9.72461 17.5573L9.69513 17.5536L9.68518 17.5523L9.67818 17.5488L9.63998 17.537C9.63315 17.5349 9.62677 17.5329 9.6208 17.5309L10.4567 16.9024L13.156 14.8728L17.7894 17.8035L17.8418 17.8366L17.9008 17.856C18.0447 17.9032 18.1926 17.9422 18.3364 17.9396C18.5281 17.936 18.6525 17.861 18.7169 17.8187C18.7898 17.7712 18.8461 17.7192 18.8898 17.6685C18.9278 17.6244 18.9627 17.5706 18.9527 17.585L19.0065 17.5074L19.0282 17.4156L22.1109 4.40141L22.1244 4.34457V4.33797C22.1313 4.30486 22.1369 4.26904 22.139 4.23072C22.14 4.21434 22.1401 4.20057 22.1401 4.19047L22.14 4.1846L22.1799 3.65726H21.6406L21.6204 3.65733C21.6139 3.6574 21.5993 3.65759 21.5821 3.65877C21.5635 3.66005 21.5348 3.66291 21.5007 3.67058C21.4645 3.67873 21.4354 3.68931 21.415 3.69772C21.4116 3.69912 21.408 3.70064 21.4047 3.70208L21.3961 3.70499C21.3222 3.72996 20.0537 4.16576 18.3421 4.75905L18.3415 4.75928C16.9074 5.25862 15.1125 5.8823 13.2683 6.5231C12.9109 6.64731 12.5516 6.77216 12.1927 6.89687C9.98563 7.6636 7.7965 8.42428 6.15913 8.99328L4.18361 9.67982L3.63134 9.87176L3.48597 9.92228L3.44872 9.93523L3.44427 9.93678L3.42646 9.94229L3.40466 9.94903L3.38357 9.95773L3.35753 9.96847L3.52215 10.3676V10.4388V10.4414H3.03517V10.4441V10.8242L3.40136 10.9259L7.98171 12.1981L8.06506 12.542L8.62926 12.2536L16.3109 8.32759L14.3754 9.81579L11.6871 11.8829L10.8086 12.5585L10.5632 12.7472L10.4986 12.7968L10.4821 12.8096L10.4779 12.8128L10.4768 12.8136L10.4766 12.8138C10.4765 12.8138 10.4765 12.8139 10.7813 13.2102L10.4765 12.8139L10.3255 12.9299L10.29 13.117L9.66504 16.4095L9.4681 17.4469C9.4406 17.4254 9.41593 17.4023 9.39342 17.3776L9.38801 17.3716L9.3824 17.3658C9.26483 17.2446 9.14872 17.066 9.01244 16.7067L9.01165 16.7047C8.85208 16.2895 8.37827 15.0113 8.00136 13.9945C7.7777 13.3911 7.58816 12.8798 7.51864 12.6954L7.42911 12.458L7.18465 12.3901L3.11564 11.2595L3.07544 11.2483C3.05327 11.2408 3.02302 11.23 2.98698 11.2159C2.90082 11.1821 2.78786 11.132 2.6753 11.0658L2.67442 11.0653C2.42327 10.9183 2.21014 10.7242 2.17087 10.4636L2.17049 10.4612C2.15308 10.3493 2.202 10.2041 2.29313 10.0938L1.909 9.77661L2.29313 10.0938C2.39129 9.97487 2.50773 9.89369 2.633 9.82619L2.63306 9.8263L2.64253 9.82093C2.76901 9.74919 2.89607 9.69539 2.99304 9.65938C3.03951 9.64213 3.07756 9.62953 3.10333 9.62142L3.10352 9.62198L3.1556 9.60587L3.15516 9.60434L3.16981 9.59924L3.31506 9.54872L3.86695 9.35679L5.8413 8.67027C7.47783 8.10127 9.6661 7.34061 11.8731 6.5739L11.8731 6.57389C12.9157 6.21158 13.962 5.84806 14.9566 5.5025C16.0702 5.1156 17.119 4.75122 18.0251 4.43631C18.3755 4.31511 18.701 4.20243 18.9992 4.0992ZM9.63945 17.5387C9.65076 17.5417 9.66449 17.5459 9.6795 17.5516L9.67752 17.5513C9.66608 17.5472 9.65331 17.5431 9.63931 17.5392C9.63871 17.539 9.63811 17.5388 9.63751 17.5387L9.63759 17.5382C9.6382 17.5384 9.63882 17.5385 9.63945 17.5387ZM3.52215 10.2937V10.357L3.38155 9.95932L3.38393 9.9586L3.38781 9.95743C3.39029 9.95671 3.39842 9.95435 3.40949 9.95174C3.41339 9.95082 3.41986 9.94935 3.42814 9.94774C3.4313 9.94713 3.43472 9.9465 3.43836 9.94587L3.52215 10.187V10.2516V10.2937ZM3.52215 10.1594L3.45529 9.94326C3.4706 9.94118 3.49425 9.93875 3.52215 9.93875V10.1594ZM22.1399 4.17507C22.1399 4.17507 22.1399 4.17512 22.1399 4.17522L22.1399 4.17512V4.17507ZM3.13877 9.61075C3.13914 9.61065 3.13924 9.61062 3.13907 9.61067L3.13877 9.61075Z" stroke="black"/>
<path d="M18.9992 4.0992C20.0458 3.73695 20.7566 3.49092 21.0252 3.40042H21.0255L21.1 3.37652C21.3156 3.30736 21.5299 3.25521 21.7444 3.24698C21.9541 3.23893 22.1724 3.27277 22.3934 3.38138L22.3947 3.38201C22.588 3.47631 22.7388 3.65359 22.7903 3.80931C22.846 3.97781 22.8429 4.17355 22.7693 4.44566L22.7672 4.45333L22.7654 4.46107L19.6656 17.5608L19.6589 17.5748L19.6589 17.5748L19.658 17.5767C19.6578 17.5771 19.6576 17.5774 19.6574 17.5779C19.6553 17.582 19.6507 17.5907 19.6434 17.6034C19.6287 17.6288 19.6035 17.6692 19.5667 17.7181C19.4927 17.8165 19.3752 17.9448 19.2056 18.0575C18.8935 18.2645 18.2105 18.4193 17.5137 18.1675L17.5104 18.1663L17.4724 18.1529L13.4933 15.6344L13.2016 15.4498L12.9256 15.6571L10.538 17.4508L10.529 17.4565L10.5246 17.4591C10.5175 17.4631 10.5041 17.4704 10.485 17.4797C10.4464 17.4984 10.387 17.524 10.3124 17.5462C10.1617 17.591 9.96537 17.6175 9.75344 17.5645L9.72461 17.5573L9.69513 17.5536L9.68518 17.5523L9.67818 17.5488L9.63998 17.537C9.63315 17.5349 9.62677 17.5329 9.6208 17.5309L10.4567 16.9024L13.156 14.8728L17.7894 17.8035L17.8418 17.8366L17.9008 17.856C18.0447 17.9032 18.1926 17.9422 18.3364 17.9396C18.5281 17.936 18.6525 17.861 18.7169 17.8187C18.7898 17.7712 18.8461 17.7192 18.8898 17.6685C18.9278 17.6244 18.9627 17.5706 18.9527 17.585L19.0065 17.5074L19.0282 17.4156L22.1109 4.40141L22.1244 4.34457V4.33797C22.1313 4.30486 22.1369 4.26904 22.139 4.23072C22.14 4.21434 22.1401 4.20057 22.1401 4.19047L22.14 4.1846L22.1799 3.65726H21.6406L21.6204 3.65733C21.6139 3.6574 21.5993 3.65759 21.5821 3.65877C21.5635 3.66005 21.5348 3.66291 21.5007 3.67058C21.4645 3.67873 21.4354 3.68931 21.415 3.69772C21.4116 3.69912 21.408 3.70064 21.4047 3.70208L21.3961 3.70499C21.3222 3.72996 20.0537 4.16576 18.3421 4.75905L18.3415 4.75928C16.9074 5.25862 15.1125 5.8823 13.2683 6.5231C12.9109 6.64731 12.5516 6.77216 12.1927 6.89687C9.98563 7.6636 7.7965 8.42428 6.15913 8.99328L4.18361 9.67982L3.63134 9.87176L3.48597 9.92228L3.44872 9.93523L3.44427 9.93678L3.42646 9.94229L3.40466 9.94903L3.38357 9.95773L3.35753 9.96847L3.52215 10.3676V10.4388V10.4414H3.03517V10.4441V10.8242L3.40136 10.9259L7.98171 12.1981L8.06506 12.542L8.62926 12.2536L16.3109 8.32759L14.3754 9.81579L11.6871 11.8829L10.8086 12.5585L10.5632 12.7472L10.4986 12.7968L10.4821 12.8096L10.4779 12.8128L10.4768 12.8136L10.4766 12.8138C10.4765 12.8138 10.4765 12.8139 10.7813 13.2102L10.4765 12.8139L10.3255 12.9299L10.29 13.117L9.66504 16.4095L9.4681 17.4469C9.4406 17.4254 9.41593 17.4023 9.39342 17.3776L9.38801 17.3716L9.3824 17.3658C9.26483 17.2446 9.14872 17.066 9.01244 16.7067L9.01165 16.7047C8.85208 16.2895 8.37827 15.0113 8.00136 13.9945C7.7777 13.3911 7.58816 12.8798 7.51864 12.6954L7.42911 12.458L7.18465 12.3901L3.11564 11.2595L3.07544 11.2483C3.05327 11.2408 3.02302 11.23 2.98698 11.2159C2.90082 11.1821 2.78786 11.132 2.6753 11.0658L2.67442 11.0653C2.42327 10.9183 2.21014 10.7242 2.17087 10.4636L2.17049 10.4612C2.15308 10.3493 2.202 10.2041 2.29313 10.0938L1.909 9.77661L2.29313 10.0938C2.39129 9.97487 2.50773 9.89369 2.633 9.82619L2.63306 9.8263L2.64253 9.82093C2.76901 9.74919 2.89607 9.69539 2.99304 9.65938C3.03951 9.64213 3.07756 9.62953 3.10333 9.62142L3.10352 9.62198L3.1556 9.60587L3.15516 9.60434L3.16981 9.59924L3.31506 9.54872L3.86695 9.35679L5.8413 8.67027C7.47783 8.10127 9.6661 7.34061 11.8731 6.5739L11.8731 6.57389C12.9157 6.21158 13.962 5.84806 14.9566 5.5025C16.0702 5.1156 17.119 4.75122 18.0251 4.43631C18.3755 4.31511 18.701 4.20243 18.9992 4.0992ZM9.63945 17.5387C9.65076 17.5417 9.66449 17.5459 9.6795 17.5516L9.67752 17.5513C9.66608 17.5472 9.65331 17.5431 9.63931 17.5392C9.63871 17.539 9.63811 17.5388 9.63751 17.5387L9.63759 17.5382C9.6382 17.5384 9.63882 17.5385 9.63945 17.5387ZM3.52215 10.2937V10.357L3.38155 9.95932L3.38393 9.9586L3.38781 9.95743C3.39029 9.95671 3.39842 9.95435 3.40949 9.95174C3.41339 9.95082 3.41986 9.94935 3.42814 9.94774C3.4313 9.94713 3.43472 9.9465 3.43836 9.94587L3.52215 10.187V10.2516V10.2937ZM3.52215 10.1594L3.45529 9.94326C3.4706 9.94118 3.49425 9.93875 3.52215 9.93875V10.1594ZM22.1399 4.17507C22.1399 4.17507 22.1399 4.17512 22.1399 4.17522L22.1399 4.17512V4.17507ZM3.13877 9.61075C3.13914 9.61065 3.13924 9.61062 3.13907 9.61067L3.13877 9.61075Z" stroke="black" stroke-opacity="0.2"/>
</svg>
