<svg width="27" height="23" viewBox="0 0 27 23" fill="none" xmlns="http://www.w3.org/2000/svg">
<path d="M21.8981 2.88211C21.6182 2.89285 21.3545 2.95999 21.1201 3.03519H21.1169C20.8792 3.11307 19.7497 3.50516 18.0342 4.09866C16.3187 4.69485 14.0921 5.46829 11.8818 6.23636C7.46779 7.76981 3.12859 9.27908 3.12859 9.27908L3.18068 9.26297C3.18068 9.26297 2.8812 9.34354 2.5687 9.52078C2.40919 9.60672 2.23341 9.72488 2.08042 9.91019C1.92742 10.0955 1.80372 10.3802 1.8493 10.6729C1.92417 11.1697 2.31479 11.4678 2.59474 11.6316C2.87794 11.7981 3.14813 11.876 3.14813 11.876H3.15464L7.22365 13.0066C7.40594 13.49 8.46388 16.3582 8.71779 17.0188C8.86753 17.4136 9.01401 17.6607 9.1963 17.8487C9.28419 17.9453 9.38836 18.0259 9.51206 18.0904C9.56089 18.1145 9.61297 18.1333 9.66505 18.1494C9.68133 18.1575 9.69761 18.1602 9.71714 18.1629L9.67482 18.1548C9.68784 18.1575 9.69761 18.1656 9.70737 18.1682C9.73992 18.1763 9.76271 18.179 9.80503 18.1844C10.4496 18.3455 10.9671 18.0152 10.9671 18.0152L10.9964 17.9964L13.3988 16.1917L17.4255 18.7403L17.5166 18.7725C18.3565 19.076 19.2061 18.9068 19.6553 18.6087C20.1078 18.3079 20.2835 17.9239 20.2835 17.9239L20.3128 17.8621L23.4248 4.71097C23.5127 4.38602 23.5355 4.08255 23.4378 3.78714C23.3402 3.49173 23.0895 3.21512 22.7868 3.06741C22.4808 2.91702 22.1781 2.87137 21.8981 2.88211ZM21.8135 4.29202C21.8102 4.33499 21.82 4.32962 21.7972 4.41287V4.42093L18.7145 17.4351C18.7015 17.4539 18.6787 17.4942 18.6169 17.5345C18.5518 17.5774 18.4997 17.6043 18.2295 17.5157L13.3044 14.4004L10.3291 16.6375L10.9541 13.345C10.9541 13.345 18.669 7.41263 19.001 7.1575C19.333 6.90237 19.2223 6.84866 19.2223 6.84866C19.2451 6.53714 18.721 6.75735 18.721 6.75735L8.57456 11.9431L8.5713 11.9297L3.70802 10.5789V10.5762C3.70477 10.5762 3.69826 10.5735 3.695 10.5735C3.69826 10.5735 3.72104 10.5655 3.72104 10.5655L3.74708 10.5547L3.77313 10.5467C3.77313 10.5467 8.11557 9.03738 12.5296 7.50394C14.7399 6.73587 16.9665 5.96243 18.6787 5.36624C20.391 4.77274 21.6572 4.33768 21.7289 4.31351C21.7972 4.29202 21.7647 4.29202 21.8135 4.29202Z" fill="#0D0D0D"/>
</svg>
