<svg width="92" height="92" viewBox="0 0 92 92" fill="none" xmlns="http://www.w3.org/2000/svg">
<path d="M33.7127 0.5H58.2873C63.3833 0.5 67.4247 0.5 70.6773 0.766C74.0093 1.03667 76.8233 1.606 79.3993 2.91267C83.5697 5.03994 86.9594 8.43296 89.0827 12.6053C90.394 15.172 90.9633 17.9907 91.234 21.3227C91.5 24.5753 91.5 28.6167 91.5 33.7127V58.2873C91.5 63.3833 91.5 67.4247 91.234 70.6773C90.9633 74.0093 90.394 76.8233 89.0873 79.3993C86.9613 83.5689 83.57 86.9586 79.3993 89.0827C76.8233 90.394 74.0093 90.9633 70.6773 91.234C67.4247 91.5 63.3833 91.5 58.2873 91.5H33.7127C28.6167 91.5 24.5753 91.5 21.3227 91.234C17.9907 90.9633 15.1767 90.394 12.6053 89.0873C8.43398 86.9621 5.0426 83.5707 2.91733 79.3993C1.606 76.8233 1.03667 74.0093 0.766 70.6773C0.5 67.4247 0.5 63.3833 0.5 58.2873V33.7127C0.5 28.6167 0.5 24.5753 0.766 21.3227C1.03667 17.9907 1.606 15.1767 2.91267 12.6053C5.03915 8.43327 8.43225 5.04181 12.6053 2.91733C15.172 1.606 17.9907 1.03667 21.3227 0.766C24.5753 0.5 28.6167 0.5 33.7127 0.5ZM29.8067 29.5267C29.1432 28.9084 28.2656 28.5718 27.3589 28.5878C26.4522 28.6038 25.587 28.9712 24.9458 29.6124C24.3045 30.2537 23.9372 31.1188 23.9212 32.0256C23.9052 32.9323 24.2418 33.8098 24.86 34.4733L36.3867 46L24.86 57.5267C24.5161 57.8471 24.2403 58.2335 24.049 58.6628C23.8577 59.0922 23.7549 59.5556 23.7466 60.0256C23.7383 60.4955 23.8247 60.9623 24.0008 61.3981C24.1768 61.8339 24.4388 62.2298 24.7712 62.5622C25.1035 62.8945 25.4994 63.1565 25.9352 63.3326C26.371 63.5086 26.8378 63.5951 27.3078 63.5868C27.7777 63.5785 28.2412 63.4756 28.6705 63.2843C29.0998 63.093 29.4862 62.8172 29.8067 62.4733L43.8067 48.4733C44.4621 47.8171 44.8303 46.9275 44.8303 46C44.8303 45.0725 44.4621 44.1829 43.8067 43.5267L29.8067 29.5267ZM50.6667 56.5C49.7384 56.5 48.8482 56.8687 48.1918 57.5251C47.5354 58.1815 47.1667 59.0717 47.1667 60C47.1667 60.9283 47.5354 61.8185 48.1918 62.4749C48.8482 63.1312 49.7384 63.5 50.6667 63.5H64.6667C65.5949 63.5 66.4852 63.1312 67.1415 62.4749C67.7979 61.8185 68.1667 60.9283 68.1667 60C68.1667 59.0717 67.7979 58.1815 67.1415 57.5251C66.4852 56.8687 65.5949 56.5 64.6667 56.5H50.6667Z" fill="black"/>
</svg>
