<svg width="16" height="16" viewBox="0 0 16 16" fill="none" xmlns="http://www.w3.org/2000/svg">
<path d="M5.292 1.12016C5.21343 1.12144 5.13856 1.15383 5.08383 1.21021C5.02909 1.2666 4.99895 1.34239 5 1.42097V5.08794H1.42188C1.34314 5.08794 1.26763 5.11922 1.21195 5.17489C1.15628 5.23057 1.125 5.30608 1.125 5.38481C1.125 5.46355 1.15628 5.53906 1.21195 5.59474C1.26763 5.65041 1.34314 5.68169 1.42188 5.68169H5V10.4004H1.42188C1.34314 10.4004 1.26763 10.4317 1.21195 10.4874C1.15628 10.5431 1.125 10.6186 1.125 10.6973C1.125 10.776 1.15628 10.8516 1.21195 10.9072C1.26763 10.9629 1.34314 10.9942 1.42188 10.9942H5V14.5782C5 14.6569 5.03128 14.7324 5.08695 14.7881C5.14263 14.8438 5.21814 14.875 5.29688 14.875C5.37561 14.875 5.45112 14.8438 5.5068 14.7881C5.56247 14.7324 5.59375 14.6569 5.59375 14.5782V10.9942H10.3125V14.5782C10.3125 14.6569 10.3438 14.7324 10.3995 14.7881C10.4551 14.8438 10.5306 14.875 10.6094 14.875C10.6881 14.875 10.7636 14.8438 10.8193 14.7881C10.875 14.7324 10.9062 14.6569 10.9062 14.5782V10.9942H14.5752C14.6539 10.9942 14.7294 10.9629 14.7851 10.9072C14.8408 10.8515 14.8721 10.776 14.8721 10.6973C14.8721 10.6185 14.8408 10.543 14.7851 10.4874C14.7294 10.4317 14.6539 10.4004 14.5752 10.4004H10.9062V5.68166H14.5176C14.5566 5.68166 14.5952 5.67398 14.6312 5.65906C14.6672 5.64414 14.6999 5.62227 14.7275 5.5947C14.7551 5.56714 14.777 5.53441 14.7919 5.49839C14.8068 5.46237 14.8145 5.42377 14.8145 5.38478C14.8145 5.3458 14.8068 5.30719 14.7919 5.27117C14.777 5.23515 14.7551 5.20243 14.7275 5.17486C14.6999 5.14729 14.6672 5.12543 14.6312 5.11051C14.5952 5.09559 14.5566 5.08791 14.5176 5.08791H10.9062V1.42097C10.9068 1.38124 10.8993 1.34181 10.8843 1.30501C10.8694 1.26821 10.8471 1.2348 10.819 1.20674C10.7909 1.17869 10.7574 1.15657 10.7205 1.1417C10.6837 1.12683 10.6442 1.1195 10.6045 1.12016C10.5259 1.12144 10.4511 1.15383 10.3963 1.21021C10.3416 1.2666 10.3114 1.34239 10.3125 1.42097V5.08794H5.59375V1.42097C5.59428 1.38124 5.58683 1.34181 5.57185 1.30501C5.55686 1.26821 5.53464 1.2348 5.5065 1.20674C5.47836 1.17869 5.44487 1.15657 5.40803 1.1417C5.37118 1.12683 5.33173 1.1195 5.292 1.12016ZM2.6875 1.1241C2.27906 1.1241 1.88219 1.27847 1.58888 1.55669C1.29556 1.83491 1.125 2.22066 1.125 2.6211C1.125 3.02153 1.29556 3.40735 1.58888 3.68556C1.88219 3.96378 2.27906 4.1191 2.6875 4.1191C3.09594 4.1191 3.49281 3.96378 3.78612 3.6855C4.07944 3.40735 4.25 3.0216 4.25 2.62116C4.25 2.22072 4.07944 1.83491 3.78612 1.55669C3.49281 1.27847 3.09594 1.1241 2.6875 1.1241ZM8 1.1241C7.59156 1.1241 7.19469 1.27847 6.90137 1.55669C6.60806 1.83491 6.4375 2.22066 6.4375 2.6211C6.4375 3.02153 6.60806 3.40735 6.90137 3.68556C7.19469 3.96378 7.59156 4.1191 8 4.1191C8.40844 4.1191 8.80531 3.96378 9.09863 3.6855C9.39194 3.40735 9.5625 3.0216 9.5625 2.62116C9.5625 2.22072 9.39194 1.83491 9.09863 1.55669C8.80531 1.27847 8.40844 1.1241 8 1.1241ZM12.3389 1.41216C12.2799 1.41233 12.2223 1.43008 12.1734 1.46314C12.1245 1.4962 12.0866 1.54307 12.0645 1.59777C12.0424 1.65247 12.0371 1.71252 12.0492 1.77025C12.0614 1.82798 12.0905 1.88078 12.1328 1.92191L12.832 2.62113L12.1562 3.29691C12.1287 3.32448 12.1068 3.35722 12.0919 3.39324C12.077 3.42927 12.0693 3.46788 12.0693 3.50688C12.0693 3.54587 12.077 3.58448 12.0919 3.62051C12.1068 3.65654 12.1287 3.68927 12.1562 3.71685C12.1838 3.74442 12.2166 3.76629 12.2526 3.78121C12.2886 3.79614 12.3272 3.80382 12.3662 3.80382C12.4052 3.80382 12.4438 3.79614 12.4799 3.78121C12.5159 3.76629 12.5486 3.74442 12.5762 3.71685L13.252 3.04103L13.9512 3.74125C14.0069 3.79693 14.0824 3.82821 14.1612 3.8282C14.2399 3.82819 14.3155 3.7969 14.3711 3.7412C14.4268 3.68551 14.4581 3.60997 14.4581 3.53122C14.4581 3.45246 14.4268 3.37693 14.3711 3.32125L13.6719 2.62116L14.3477 1.94538C14.3906 1.90368 14.42 1.84997 14.4319 1.7913C14.4438 1.73263 14.4376 1.67173 14.4143 1.6166C14.391 1.56147 14.3515 1.51468 14.3011 1.48238C14.2507 1.45008 14.1917 1.43377 14.1318 1.4356C14.0547 1.43788 13.9815 1.47011 13.9277 1.52547L13.2519 2.20122L12.5527 1.50203C12.5249 1.47347 12.4916 1.45079 12.4549 1.43535C12.4182 1.4199 12.3787 1.41202 12.3388 1.41216H12.3389ZM2.6875 1.71778C2.94178 1.71778 3.20266 1.82206 3.37794 1.98831C3.55319 2.15456 3.65722 2.393 3.65722 2.62113C3.65722 2.84925 3.55322 3.08863 3.37797 3.25488C3.20266 3.42113 2.94181 3.52444 2.68753 3.52444C2.43325 3.52444 2.17238 3.42119 1.99709 3.25494C1.82184 3.08869 1.71781 2.84931 1.71781 2.62119C1.71781 2.393 1.82181 2.15463 1.99706 1.98838C2.17237 1.82213 2.43322 1.71785 2.6875 1.71785V1.71778ZM8 1.71778C8.25428 1.71778 8.51516 1.82206 8.69044 1.98831C8.86569 2.15456 8.96972 2.393 8.96972 2.62113C8.96972 2.84925 8.86572 3.08863 8.69047 3.25488C8.51516 3.42113 8.25431 3.52444 8.00003 3.52444C7.74575 3.52444 7.48487 3.42119 7.30959 3.25494C7.13434 3.08869 7.03031 2.84931 7.03031 2.62119C7.03031 2.393 7.13431 2.15463 7.30956 1.98838C7.48488 1.82213 7.74572 1.71785 8 1.71785V1.71778ZM5.59375 5.68166H10.3125V10.4004H5.59375V5.68166ZM13.252 6.50297C12.8435 6.50297 12.4467 6.65735 12.1533 6.9356C11.86 7.21385 11.6894 7.59959 11.6894 8.00003C11.6894 8.40047 11.86 8.78628 12.1533 9.0645C12.4466 9.34272 12.8435 9.49809 13.2519 9.49809C13.6604 9.49809 14.0572 9.34272 14.3506 9.0645C14.6439 8.78625 14.8144 8.40044 14.8144 8.00003C14.8144 7.59963 14.6439 7.21378 14.3506 6.93556C14.0572 6.65734 13.6603 6.50297 13.2519 6.50297H13.252ZM7.08791 6.79109C7.02884 6.79109 6.97111 6.8087 6.9221 6.84168C6.8731 6.87467 6.83505 6.92152 6.81282 6.97625C6.79059 7.03097 6.78519 7.09109 6.79731 7.1489C6.80944 7.20672 6.83853 7.2596 6.88088 7.30078L7.58009 8.00003L6.90431 8.67581C6.87641 8.70331 6.85422 8.73606 6.83903 8.77217C6.82384 8.80828 6.81594 8.84704 6.8158 8.88622C6.81565 8.9254 6.82326 8.96421 6.83819 9.00044C6.85311 9.03666 6.87506 9.06957 6.90276 9.09727C6.93046 9.12497 6.96337 9.14692 6.99959 9.16185C7.03581 9.17678 7.07463 9.18439 7.11381 9.18425C7.15298 9.18411 7.19174 9.17622 7.22786 9.16103C7.26397 9.14584 7.29672 9.12365 7.32422 9.09575L8 8.41997L8.69922 9.11919C8.72679 9.14676 8.75953 9.16863 8.79555 9.18356C8.83158 9.19848 8.87019 9.20616 8.90919 9.20616C8.94818 9.20616 8.98679 9.19848 9.02282 9.18356C9.05885 9.16863 9.09158 9.14676 9.11916 9.11919C9.14673 9.09161 9.1686 9.05888 9.18353 9.02285C9.19845 8.98683 9.20613 8.94821 9.20613 8.90922C9.20613 8.87022 9.19845 8.83161 9.18353 8.79559C9.1686 8.75956 9.14673 8.72682 9.11916 8.69925L8.41994 8.00003L9.09572 7.32425C9.13868 7.28256 9.16804 7.22884 9.17993 7.17017C9.19182 7.11149 9.18569 7.05059 9.16235 6.99546C9.139 6.94032 9.09954 6.89354 9.04913 6.86124C8.99872 6.82894 8.93972 6.81264 8.87988 6.81447C8.80276 6.81677 8.72958 6.84899 8.67581 6.90431L8 7.58013L7.30078 6.88091C7.2731 6.85246 7.24 6.82985 7.20343 6.81442C7.16686 6.79899 7.12757 6.79105 7.08787 6.79106L7.08791 6.79109ZM13.252 7.09672C13.5062 7.09672 13.7671 7.2 13.9424 7.36625C14.1177 7.5325 14.2217 7.77188 14.2217 8C14.2217 8.22813 14.1176 8.46656 13.9424 8.63281C13.7671 8.79906 13.5062 8.90331 13.2519 8.90331C12.9977 8.90331 12.7368 8.79906 12.5615 8.63281C12.3862 8.46656 12.2822 8.22813 12.2822 8C12.2822 7.77188 12.3862 7.5325 12.5615 7.36625C12.7367 7.2 12.9977 7.09669 13.2519 7.09669L13.252 7.09672ZM8 11.8799C7.59156 11.8799 7.19469 12.0343 6.90137 12.3125C6.60806 12.5908 6.4375 12.9766 6.4375 13.377C6.4375 13.7774 6.60806 14.1642 6.90137 14.4424C7.19469 14.7206 7.59156 14.876 8 14.876C8.40844 14.876 8.80531 14.7207 9.09863 14.4424C9.39194 14.1642 9.5625 13.7774 9.5625 13.377C9.5625 12.9765 9.39194 12.5907 9.09863 12.3125C8.80531 12.0343 8.40841 11.8799 8 11.8799ZM1.77538 12.168C1.71629 12.168 1.65855 12.1856 1.60954 12.2186C1.56053 12.2516 1.52247 12.2985 1.50024 12.3532C1.47801 12.4079 1.47262 12.4681 1.48476 12.5259C1.4969 12.5837 1.52601 12.6366 1.56837 12.6778L2.26756 13.378L1.59187 14.0538C1.56366 14.0812 1.54118 14.114 1.52573 14.1502C1.51029 14.1864 1.50219 14.2253 1.50191 14.2646C1.50164 14.304 1.50918 14.343 1.52411 14.3794C1.53904 14.4158 1.56106 14.4489 1.58889 14.4767C1.61671 14.5045 1.64979 14.5265 1.6862 14.5414C1.7226 14.5564 1.76162 14.5639 1.80097 14.5636C1.84031 14.5634 1.87921 14.5553 1.91541 14.5398C1.9516 14.5244 1.98436 14.5019 2.01178 14.4737L2.6875 13.7978L3.38672 14.4971C3.41422 14.525 3.44697 14.5472 3.48308 14.5624C3.51919 14.5776 3.55795 14.5855 3.59712 14.5856C3.6363 14.5858 3.67512 14.5781 3.71134 14.5632C3.74756 14.5483 3.78047 14.5263 3.80818 14.4986C3.83588 14.4709 3.85783 14.438 3.87276 14.4018C3.88768 14.3656 3.8953 14.3268 3.89515 14.2876C3.89501 14.2484 3.88712 14.2097 3.87193 14.1736C3.85674 14.1374 3.83456 14.1047 3.80666 14.0772L3.10741 13.3779L3.78322 12.7022C3.82619 12.6605 3.85556 12.6068 3.86746 12.5481C3.87935 12.4894 3.87323 12.4285 3.84988 12.3733C3.82654 12.3182 3.78707 12.2714 3.73665 12.2391C3.68623 12.2068 3.62722 12.1905 3.56737 12.1923C3.49026 12.1946 3.41708 12.2269 3.36331 12.2822L2.6875 12.9581L1.98828 12.2578C1.9606 12.2294 1.9275 12.2068 1.89093 12.1914C1.85436 12.1759 1.81507 12.168 1.77538 12.168V12.168ZM8 12.4746C8.25428 12.4746 8.51516 12.5779 8.69044 12.7442C8.86569 12.9104 8.96972 13.1488 8.96972 13.377C8.96972 13.6051 8.86572 13.8445 8.69047 14.0107C8.51516 14.177 8.25431 14.2803 8.00003 14.2803C7.74575 14.2803 7.48487 14.177 7.30959 14.0107C7.13434 13.8445 7.03031 13.6051 7.03031 13.377C7.03031 13.1488 7.13431 12.9104 7.30956 12.7441C7.48488 12.5778 7.74572 12.4746 8 12.4746V12.4746Z" fill="black"/>
</svg>
