<svg width="70" height="31" viewBox="0 0 70 31" fill="none" xmlns="http://www.w3.org/2000/svg">
<path d="M0 1.0835H2.30514L5.80004 11.0592L5.46542 10.9285L8.10518 4.10985L9.01609 6.81861L5.37247 15.2064L0 1.0835ZM6.54363 1.0835H8.51416L12.3437 10.8911L11.9533 10.8164L15.2251 1.0835H17.3443L12.0648 15.1691L6.54363 1.0835Z" fill="#0D0D0D"/>
<path d="M38.5828 1.00878C39.2892 1.00878 39.9399 1.10841 40.5348 1.30768C41.142 1.49449 41.6564 1.76848 42.0777 2.12965C42.5115 2.49082 42.8461 2.93916 43.0816 3.47469C43.3294 3.99776 43.4534 4.60801 43.4534 5.30544C43.4534 5.84096 43.3728 6.37026 43.2117 6.89333C43.0506 7.4164 42.7903 7.88966 42.4309 8.3131C42.0715 8.73654 41.6006 9.07902 41.0181 9.34056C40.4356 9.58964 39.7106 9.71418 38.8431 9.71418H36.8726V14.5713H34.8835V1.00878H38.5828ZM38.8059 7.80871C39.314 7.80871 39.7354 7.72776 40.07 7.56585C40.417 7.40395 40.6835 7.20468 40.8694 6.96806C41.0677 6.71898 41.204 6.45744 41.2784 6.18345C41.3651 5.89701 41.4085 5.62302 41.4085 5.36148C41.4085 5.1124 41.3651 4.85086 41.2784 4.57687C41.204 4.30288 41.0677 4.04135 40.8694 3.79227C40.6835 3.54319 40.4294 3.33769 40.1072 3.17579C39.785 3.01389 39.3884 2.93294 38.9175 2.93294H36.8726V7.80871H38.8059ZM41.0925 8.96694L44.5874 14.5713H42.2822L38.7316 9.02298L41.0925 8.96694Z" fill="#0D0D0D"/>
<path d="M47.2464 1.00878H49.2356V12.6471H55.9837V14.5713H47.2464V1.00878Z" fill="#0D0D0D"/>
<path d="M58.8833 14.5713V1.00878H62.6384C63.9769 1.00878 65.1171 1.21427 66.0589 1.62526C67.0008 2.03624 67.7568 2.578 68.3269 3.25052C68.9094 3.92304 69.3308 4.67028 69.591 5.49225C69.8637 6.31422 70 7.14241 70 7.97684C70 8.98562 69.8203 9.89477 69.4609 10.7043C69.1015 11.5138 68.612 12.2112 67.9923 12.7966C67.3726 13.3695 66.66 13.8116 65.8545 14.1229C65.0489 14.4218 64.1938 14.5713 63.2891 14.5713H58.8833ZM60.8724 12.6471H62.9173C63.6485 12.6471 64.3177 12.5413 64.925 12.3295C65.5446 12.1178 66.0775 11.8065 66.5237 11.3955C66.9822 10.9845 67.3355 10.4801 67.5833 9.88231C67.8312 9.28452 67.9551 8.59954 67.9551 7.82739C67.9551 6.99297 67.8126 6.27063 67.5276 5.66038C67.2549 5.03768 66.8893 4.52706 66.4307 4.12853C65.9722 3.71754 65.4579 3.41864 64.8878 3.23183C64.3301 3.03257 63.76 2.93294 63.1775 2.93294H60.8724V12.6471Z" fill="#0D0D0D"/>
<path d="M10.6892 25.7986L6.99652 16.7009H9.45038L12.0276 24.0986L11.4328 24.136L14.1469 16.7009H16.5822L12.6783 25.7986V30.2634H10.6892V25.7986Z" fill="#0D0D0D"/>
<path d="M36.6441 25.425C36.6441 25.9979 36.7866 26.5147 37.0717 26.9755C37.3567 27.4363 37.7347 27.8037 38.2057 28.0777C38.6766 28.3517 39.2033 28.4887 39.7858 28.4887C40.4055 28.4887 40.957 28.3517 41.4403 28.0777C41.9236 27.8037 42.3016 27.4363 42.5743 26.9755C42.8593 26.5147 43.0019 25.9979 43.0019 25.425V16.7009H44.9538V25.481C44.9538 26.4649 44.7245 27.3305 44.266 28.0777C43.8074 28.8125 43.1878 29.3854 42.407 29.7964C41.6262 30.2074 40.7525 30.4129 39.7858 30.4129C38.8439 30.4129 37.9826 30.2074 37.2018 29.7964C36.421 29.3854 35.8014 28.8125 35.3428 28.0777C34.8967 27.3305 34.6736 26.4649 34.6736 25.481V16.7009H36.6441V25.425Z" fill="#0D0D0D"/>
<path d="M50.9458 16.7009C51.6522 16.7009 52.3029 16.8006 52.8978 16.9998C53.505 17.1866 54.0193 17.4606 54.4407 17.8218C54.8745 18.183 55.2091 18.6313 55.4446 19.1668C55.6924 19.6899 55.8164 20.3001 55.8164 20.9976C55.8164 21.5331 55.7358 22.0624 55.5747 22.5855C55.4136 23.1085 55.1533 23.5818 54.7939 24.0052C54.4345 24.4287 53.9636 24.7712 53.3811 25.0327C52.7986 25.2818 52.0736 25.4063 51.2061 25.4063H49.2356V30.2634H47.2464V16.7009H50.9458ZM51.1689 23.5008C51.677 23.5008 52.0984 23.4199 52.433 23.258C52.78 23.0961 53.0465 22.8968 53.2324 22.6602C53.4307 22.4111 53.567 22.1496 53.6414 21.8756C53.7281 21.5891 53.7715 21.3152 53.7715 21.0536C53.7715 20.8045 53.7281 20.543 53.6414 20.269C53.567 19.995 53.4307 19.7335 53.2324 19.4844C53.0465 19.2353 52.7924 19.0298 52.4702 18.8679C52.148 18.706 51.7514 18.6251 51.2804 18.6251H49.2356V23.5008H51.1689ZM53.4555 24.6591L56.9504 30.2634H54.6452L51.0945 24.7151L53.4555 24.6591Z" fill="#0D0D0D"/>
<path d="M66.9699 19.1482C66.4989 18.8991 65.9908 18.6873 65.4455 18.513C64.9002 18.3386 64.3735 18.2515 63.8653 18.2515C63.1713 18.2515 62.6198 18.4134 62.2108 18.7372C61.8019 19.0485 61.5974 19.4782 61.5974 20.0262C61.5974 20.4122 61.7337 20.7485 62.0064 21.0349C62.279 21.3214 62.6322 21.5705 63.066 21.7822C63.4997 21.9939 63.9583 22.1932 64.4416 22.38C64.8506 22.5294 65.2534 22.71 65.65 22.9217C66.0589 23.121 66.4245 23.3701 66.7468 23.669C67.0814 23.9679 67.3416 24.3415 67.5275 24.7898C67.7258 25.2257 67.825 25.7613 67.825 26.3964C67.825 27.1188 67.6453 27.7726 67.2859 28.3579C66.9389 28.9433 66.4307 29.4103 65.7615 29.759C65.1047 30.0953 64.3053 30.2634 63.3634 30.2634C62.7933 30.2634 62.2356 30.2011 61.6903 30.0766C61.1574 29.9396 60.6493 29.7653 60.166 29.5535C59.695 29.3294 59.2674 29.0865 58.8833 28.825L59.7756 27.2744C60.073 27.4862 60.4138 27.6916 60.798 27.8909C61.1822 28.0777 61.5788 28.2272 61.9878 28.3393C62.4091 28.4513 62.8057 28.5074 63.1775 28.5074C63.5865 28.5074 63.9893 28.4389 64.3859 28.3019C64.7824 28.1524 65.1109 27.9283 65.3711 27.6294C65.6314 27.318 65.7615 26.9133 65.7615 26.4151C65.7615 25.9917 65.6438 25.6367 65.4083 25.3503C65.1852 25.0514 64.8816 24.7961 64.4974 24.5844C64.1256 24.3726 63.7228 24.1858 63.2891 24.0239C62.8677 23.862 62.4401 23.6814 62.0064 23.4822C61.5726 23.2829 61.1698 23.0463 60.798 22.7723C60.4262 22.4858 60.1226 22.1371 59.8871 21.7261C59.664 21.3027 59.5525 20.7859 59.5525 20.1756C59.5525 19.4533 59.7198 18.8243 60.0544 18.2888C60.4014 17.7408 60.8786 17.3112 61.4858 16.9998C62.0931 16.6885 62.7933 16.5141 63.5865 16.4767C64.4912 16.4767 65.2782 16.5888 65.9474 16.813C66.6166 17.0372 67.2115 17.3049 67.732 17.6163L66.9699 19.1482Z" fill="#0D0D0D"/>
<path d="M0.0483337 24.8608H0.769621V30.2634H0.0483337V24.8608Z" fill="#0D0D0D"/>
<path d="M5.09502 25.8248C4.9116 25.7301 4.71083 25.6479 4.49271 25.5782C4.27459 25.5084 4.06142 25.4736 3.85321 25.4736C3.56569 25.4736 3.33518 25.5408 3.16167 25.6753C2.99312 25.8098 2.90885 25.9892 2.90885 26.2133C2.90885 26.3827 2.96338 26.5272 3.07244 26.6467C3.1815 26.7613 3.32526 26.861 3.50373 26.9456C3.68219 27.0303 3.86809 27.11 4.06142 27.1848C4.22997 27.2495 4.39604 27.3218 4.55963 27.4015C4.72322 27.4812 4.86946 27.5808 4.99835 27.7004C5.1322 27.8199 5.2363 27.9669 5.31066 28.1412C5.38998 28.3156 5.42964 28.5323 5.42964 28.7913C5.42964 29.0753 5.35775 29.3343 5.21399 29.5685C5.07519 29.8026 4.87442 29.9869 4.61168 30.1214C4.34894 30.2559 4.03663 30.3232 3.67475 30.3232C3.4368 30.3232 3.20877 30.2958 2.99064 30.241C2.77748 30.1862 2.57919 30.1165 2.39577 30.0318C2.21235 29.9421 2.04876 29.8499 1.905 29.7553L2.22474 29.1874C2.34372 29.2721 2.48004 29.3543 2.63372 29.434C2.7874 29.5087 2.94851 29.571 3.11706 29.6208C3.2856 29.6656 3.4492 29.688 3.60783 29.688C3.77638 29.688 3.94245 29.6581 4.10604 29.5984C4.27459 29.5336 4.41339 29.4365 4.52245 29.3069C4.63151 29.1774 4.68604 29.0055 4.68604 28.7913C4.68604 28.607 4.63647 28.4551 4.53732 28.3355C4.44313 28.211 4.31672 28.1064 4.15809 28.0217C3.99946 27.932 3.83091 27.8523 3.65244 27.7826C3.4839 27.7178 3.31287 27.6481 3.13936 27.5733C2.96586 27.4936 2.80475 27.399 2.65603 27.2894C2.50731 27.1748 2.38833 27.0353 2.2991 26.8709C2.20987 26.7065 2.16525 26.5073 2.16525 26.2731C2.16525 25.9892 2.23218 25.7426 2.36603 25.5334C2.50483 25.3191 2.69321 25.1523 2.93116 25.0327C3.16911 24.9082 3.44176 24.8409 3.74911 24.8309C4.09612 24.8309 4.401 24.8733 4.66373 24.958C4.93143 25.0427 5.1669 25.1473 5.37015 25.2718L5.09502 25.8248Z" fill="#0D0D0D"/>
<path d="M20.163 11.9102C20.1531 11.9006 20.1433 11.8909 20.1334 11.8812C19.5014 11.246 19.0056 10.5112 18.6462 9.67682C18.2992 8.82994 18.1257 7.92079 18.1257 6.94938L18.108 24.065C18.1109 23.1394 18.2844 22.2628 18.6285 21.4353C18.9879 20.6008 19.4837 19.8598 20.1157 19.2122C20.1306 19.197 20.1455 19.1819 20.1604 19.1668L20.163 11.9102Z" fill="#0D0D0D"/>
<path d="M31.9193 6.9728C31.9164 7.92294 31.7368 8.81183 31.3803 9.63946C31.0209 10.4739 30.5189 11.2087 29.8745 11.8438C29.872 11.8463 29.8695 11.8488 29.867 11.8513L29.8642 19.2197C30.5051 19.8655 31.0046 20.6041 31.3626 21.4353C31.722 22.2697 31.9017 23.1539 31.9017 24.088L31.9193 6.9728Z" fill="#0D0D0D"/>
<path fill-rule="evenodd" clip-rule="evenodd" d="M18.6462 4.29666C18.2992 5.13108 18.1257 6.01532 18.1257 6.94938C18.1257 7.92079 18.2992 8.82994 18.6462 9.67682C19.0056 10.5112 19.5014 11.246 20.1334 11.8812L20.163 11.9102L20.1706 6.94938C20.1706 6.2644 20.2883 5.61679 20.5238 5.00654C20.7717 4.39629 21.1187 3.86076 21.5648 3.39996C22.011 2.93916 22.5253 2.57799 23.1078 2.31646C23.6903 2.05492 24.3285 1.92415 25.0225 1.92415C25.6918 1.92415 26.3176 2.05492 26.9001 2.31646C27.495 2.57799 28.0093 2.93916 28.4431 3.39996C28.8892 3.86076 29.2362 4.39629 29.4841 5.00654C29.7444 5.60434 29.8745 6.25195 29.8745 6.94938C29.8745 6.95557 29.8745 6.96175 29.8745 6.96793L29.867 11.8513L29.8745 11.8438C30.5189 11.2087 31.0209 10.4739 31.3803 9.63946C31.7368 8.81183 31.9164 7.92294 31.9193 6.9728L31.9194 6.94938C31.9194 6.01532 31.7397 5.13108 31.3803 4.29666C31.0209 3.46223 30.5189 2.72122 29.8745 2.0736C29.23 1.42599 28.4927 0.921602 27.6623 0.560433C26.832 0.186811 25.9458 0 25.004 0C24.0497 0 23.1574 0.186811 22.327 0.560433C21.4967 0.921602 20.7655 1.42599 20.1334 2.0736C19.5014 2.72122 19.0056 3.46223 18.6462 4.29666Z" fill="#0D0D0D"/>
<path fill-rule="evenodd" clip-rule="evenodd" d="M18.108 24.065L18.108 24.088C18.108 25.0594 18.2815 25.9686 18.6285 26.8154C18.9879 27.6499 19.4837 28.3846 20.1157 29.0198C20.7478 29.6425 21.479 30.1282 22.3093 30.4769C23.1397 30.8256 24.032 31 24.9863 31C25.9282 31 26.8143 30.8256 27.6446 30.4769C28.4874 30.1158 29.2248 29.6176 29.8568 28.9824C30.5013 28.3473 31.0032 27.6125 31.3626 26.7781C31.722 25.9436 31.9017 25.047 31.9017 24.088C31.9017 23.1539 31.722 22.2697 31.3626 21.4353C31.0046 20.6041 30.5051 19.8655 29.8642 19.2197L29.8568 24.088C29.8568 24.7854 29.7329 25.4393 29.485 26.0495C29.2371 26.6473 28.8901 27.1766 28.444 27.6374C28.0102 28.0857 27.5021 28.4407 26.9196 28.7022C26.3371 28.9513 25.7113 29.0758 25.042 29.0758C24.3604 29.0758 23.7222 28.9513 23.1273 28.7022C22.5448 28.4407 22.0305 28.0857 21.5843 27.6374C21.1382 27.1766 20.785 26.6473 20.5247 26.0495C20.2768 25.4393 20.1529 24.7854 20.1529 24.088C20.1529 24.0818 20.1529 24.0756 20.1529 24.0694L20.1604 19.1668C20.1455 19.1819 20.1306 19.197 20.1157 19.2122C19.4837 19.8598 18.9879 20.6008 18.6285 21.4353C18.2844 22.2628 18.1109 23.1394 18.108 24.065Z" fill="#0D0D0D"/>
</svg>
