<svg width="35" height="35" viewBox="0 0 35 35" fill="none" xmlns="http://www.w3.org/2000/svg">
<path d="M6.45534 29.7511L3.99878 2.1875H31.0013L28.5414 29.7467L17.4836 32.8125L6.45534 29.7511Z" fill="#1572B6"/>
<path d="M17.5 30.4696L26.4359 27.9923L28.5381 4.44165H17.5V30.4696Z" fill="#33A9DC"/>
<path d="M17.5 14.4277H21.9734L22.2819 10.966H17.5V7.58521H25.9766L25.8956 8.49192L25.0655 17.8085H17.5V14.4277Z" fill="white"/>
<path d="M17.5207 23.2072L17.5054 23.2116L13.7407 22.1944L13.5001 19.4983H10.1062L10.5798 24.8063L17.5043 26.7291L17.5207 26.7247V23.2072Z" fill="#EBEBEB"/>
<path d="M21.6858 17.665L21.2789 22.1921L17.5088 23.2093V26.7268L24.4388 24.8061L24.4902 24.2352L25.0775 17.665H21.6858Z" fill="white"/>
<path d="M17.5121 7.58521V10.966H9.34618L9.27837 10.2058L9.12415 8.49192L9.04321 7.58521H17.5121ZM17.5001 14.4277V17.8085H13.7824L13.7146 17.0483L13.5615 15.3344L13.4806 14.4277H17.5001Z" fill="#EBEBEB"/>
</svg>
