<svg width="35" height="35" viewBox="0 0 35 35" fill="none" xmlns="http://www.w3.org/2000/svg">
<g clip-path="url(#clip0_2415_304)">
<path d="M26.7969 0H8.20312C3.67266 0 0 3.67266 0 8.20312V26.7969C0 31.3273 3.67266 35 8.20312 35H26.7969C31.3273 35 35 31.3273 35 26.7969V8.20312C35 3.67266 31.3273 0 26.7969 0Z" fill="#092E20"/>
<path d="M15.4067 6.97266H19.3189V25.0811C17.312 25.4621 15.8386 25.6145 14.2383 25.6145C9.46217 25.6144 6.97266 23.4553 6.97266 19.3144C6.97266 15.3259 9.61475 12.7349 13.7047 12.7349C14.3397 12.7349 14.8224 12.7855 15.4067 12.938V6.97266ZM15.4067 16.0878C14.9495 15.9357 14.5685 15.8848 14.0859 15.8848C12.1044 15.8848 10.961 17.1042 10.961 19.238C10.961 21.3213 12.0535 22.4644 14.0604 22.4644C14.4921 22.4644 14.8479 22.439 15.4067 22.3629V16.0878Z" fill="white"/>
<path d="M25.5427 13.0142V22.0831C25.5427 25.2079 25.3141 26.7066 24.6282 28.0023C23.993 29.2473 23.1546 30.0346 21.4272 30.8984L17.7944 29.1708C19.5219 28.358 20.3602 27.647 20.8936 26.5542C21.4526 25.4365 21.6306 24.1408 21.6306 20.7368V13.0141L25.5427 13.0142ZM21.6306 6.99341H25.5427V11.0072H21.6306V6.99341Z" fill="white"/>
</g>
<defs>
<clipPath id="clip0_2415_304">
<rect width="35" height="35" fill="white"/>
</clipPath>
</defs>
</svg>
