<svg width="35" height="26" viewBox="0 0 35 26" fill="none" xmlns="http://www.w3.org/2000/svg">
<g clip-path="url(#clip0_2415_311)">
<path d="M34.2778 9.63826C33.4896 9.09139 31.6834 8.88631 30.2714 9.15975C30.1073 7.79256 29.3519 6.59641 28.0384 5.53684L27.2831 4.98996L26.7576 5.77609C26.1009 6.80148 25.7725 8.23703 25.8709 9.60422C25.9038 10.0826 26.068 10.9371 26.5606 11.689C26.1009 11.9625 25.1485 12.3043 23.9007 12.3043H0.158117L0.0924921 12.5777C-0.137469 13.9448 -0.137469 18.2171 2.55534 21.4982C4.59136 23.9932 7.61257 25.2578 11.586 25.2578C20.1897 25.2578 26.5606 21.1221 29.549 13.6371C30.7312 13.6713 33.2598 13.6371 34.5406 11.0737C34.5734 11.0053 34.639 10.8686 34.8688 10.356L35.0002 10.0826L34.2778 9.63826ZM19.1389 0H15.5268V3.41783H19.1389V0ZM19.1389 4.10143H15.5268V7.51926H19.1389V4.10143ZM14.8699 4.10143H11.2578V7.51926H14.8699V4.10143ZM10.6008 4.10143H6.98859V7.51926H10.6008V4.10143ZM6.33179 8.20285H2.71954V11.6207H6.33165L6.33179 8.20285ZM10.6008 8.20285H6.98859V11.6207H10.6008V8.20285ZM14.8699 8.20285H11.2578V11.6207H14.8699V8.20285ZM19.1391 8.20285H15.5267V11.6207H19.1391V8.20285ZM23.4081 8.20285H19.7957V11.6207H23.4081V8.20285Z" fill="#2396ED"/>
</g>
<defs>
<clipPath id="clip0_2415_311">
<rect width="35" height="25.293" fill="white"/>
</clipPath>
</defs>
</svg>
