<svg width="28" height="35" viewBox="0 0 28 35" fill="none" xmlns="http://www.w3.org/2000/svg">
<g clip-path="url(#clip0_2415_309)">
<path d="M8.13844 21.6332C7.10121 20.8172 5.99451 20.0353 5.23844 18.9335C3.64685 16.9905 2.42174 14.7415 1.58419 12.3776C1.07781 10.8404 0.904401 9.19242 0.251209 7.71486C-0.431131 6.64135 0.368763 5.46869 1.54451 5.12763C2.06759 5.02678 2.98791 4.53295 1.87695 4.88635C0.880784 5.61678 0.784826 4.22252 1.8061 4.13422C2.50312 4.04178 2.75972 3.47146 2.5211 2.95805C1.77259 2.46976 4.33546 1.93401 3.04578 1.20561C1.70323 -0.24333 4.92451 -0.522266 4.12961 1.12359C3.93961 2.38901 6.38132 0.891138 5.81429 2.35273C6.39036 3.05476 7.97089 2.51284 7.93121 3.4971C8.77015 3.55476 9.05812 4.26018 9.84483 4.31444C10.6615 4.68316 12.1406 4.97316 12.418 5.89284C11.6084 6.53359 9.73429 4.56912 9.64376 6.34305C9.88866 8.96412 9.82621 11.664 10.7848 14.1599C11.2382 15.6709 12.338 16.8604 13.3307 18.0375C14.281 19.1901 15.5679 20.002 16.8799 20.6851C18.0305 21.2276 19.2709 21.5872 20.5251 21.8134C21.0337 21.4244 21.9316 19.9783 22.7246 20.5876C22.7629 21.2737 21.1506 22.0207 22.649 21.9449C23.5296 21.6791 24.1397 22.6251 24.8645 21.7716C25.5324 22.5626 27.64 21.2666 27.165 22.8833C26.5223 23.298 25.5853 23.0474 24.9418 23.6179C23.881 23.0878 23.0363 24.0917 21.8614 23.9651C20.5572 24.1987 19.2297 24.2927 17.9075 24.2947C15.7377 24.1235 13.5222 24.0512 11.4581 23.2957C10.295 22.9578 9.16046 22.2955 8.13844 21.6332ZM9.97078 22.4276C11.1061 22.9181 12.2164 23.4356 13.4609 23.5921C15.4351 23.8662 17.474 24.2891 19.4551 23.9038C18.5585 23.499 17.6312 24.061 16.738 23.6144C15.6667 23.8447 14.517 23.5553 13.4274 23.4126C12.1891 22.8611 10.8523 22.482 9.69259 21.7653C8.24281 21.236 10.4418 22.4443 10.8334 22.5425C11.7392 23.0564 9.83717 22.2787 9.56855 22.0652C8.80983 21.6394 8.71323 21.7285 9.49366 22.1605C9.65078 22.2524 9.806 22.3491 9.97078 22.4276ZM7.81015 20.9007C8.91068 21.3084 7.80525 20.1271 7.30164 20.1954C7.07823 19.8078 6.44812 19.563 6.89259 19.355C6.09334 19.6326 6.05504 18.2997 5.67951 18.4904C4.83355 18.2233 5.35036 17.2771 4.34238 16.6957C4.25046 16.0834 3.34132 15.5526 3.05195 14.6294C2.92398 14.1565 2.02451 12.7993 2.57685 14.0624C3.04706 15.2784 3.87419 16.3206 4.56291 17.3606C5.09717 18.351 5.72887 19.387 6.70206 20.0048C7.03046 20.3199 7.34695 20.8019 7.81015 20.9007ZM4.64078 17.4204C4.67887 17.2541 4.84185 17.78 4.64078 17.4204V17.4204ZM9.12834 21.389C8.7777 21.2514 9.37174 21.2799 9.12834 21.389V21.389ZM9.72515 21.6069C9.45249 21.7752 9.66334 21.3062 9.72515 21.6069V21.6069ZM10.473 21.9186C9.92408 21.7048 10.8284 21.5795 10.473 21.9186V21.9186ZM11.7544 22.6327C11.0622 22.5125 11.9707 22.3135 11.7544 22.6327V22.6327ZM9.29397 20.9175C8.57951 20.9125 9.8461 20.5599 9.29397 20.9175V20.9175ZM9.85461 21.1971C9.65493 21.2819 9.83855 21.0085 9.85461 21.1971V21.1971ZM12.6573 22.9466C13.108 23.2311 15.289 23.5699 13.9234 23.0634C13.6944 23.1115 11.3912 22.4116 12.6573 22.9466ZM8.20812 19.4809C7.50812 19.2716 8.16429 19.2919 8.20812 19.4809V19.4809ZM9.51238 20.2421C8.8077 20.0591 9.85249 20.0049 9.51238 20.2421V20.2421ZM10.61 20.9148C9.81993 20.7304 11.0977 20.7311 10.61 20.9148V20.9148ZM7.67664 18.9028C8.20536 19.3083 9.80961 18.955 8.48632 18.6608C7.88461 18.3401 6.52812 18.1204 7.45281 18.8542L7.67664 18.9028ZM11.3539 21.147C10.4299 20.9326 11.5743 20.772 11.3539 21.147V21.147ZM10.2365 20.2592C11.5291 20.6245 9.14929 19.4411 9.91738 20.1243L10.0879 20.2016L10.2365 20.2592ZM12.4767 21.5539C11.3706 21.385 13.701 21.5656 12.4767 21.5539V21.5539ZM7.20578 18.1945C6.90387 18.2135 7.1577 17.9665 7.20578 18.1945V18.1945ZM14.5476 22.7156C14.1482 23.0224 14.5803 22.3039 14.5476 22.7156V22.7156ZM9.29546 19.4739C8.91291 19.4649 9.221 19.2569 9.29546 19.4739V19.4739ZM7.32185 18.0514C6.35908 17.7418 8.02461 18.009 7.32185 18.0514V18.0514ZM4.98376 16.5403C4.21929 15.9345 4.89621 16.2031 4.98376 16.5403V16.5403ZM11.1215 20.4354C10.9928 20.2885 11.0609 20.4673 11.1215 20.4354V20.4354ZM14.9412 22.7798C14.7332 22.8644 14.9295 22.555 14.9412 22.7798V22.7798ZM10.7834 20.0861C10.1839 19.9984 10.8524 19.7968 10.7834 20.0861V20.0861ZM7.93749 18.2823C7.09919 17.9289 8.46068 18.2266 7.93749 18.2823V18.2823ZM12.7515 21.2737C11.9571 21.1164 13.5667 20.9508 12.7515 21.2737V21.2737ZM10.2478 19.5742C11.1868 19.6951 9.12993 18.9349 10.0412 19.5059L10.2478 19.5742ZM13.5116 21.581C14.389 21.0573 14.0996 22.8089 14.9998 21.7292C15.8874 21.0809 14.2331 22.5306 15.3267 21.8448C16.1183 21.3153 17.287 22.0958 18.0251 22.3498C18.5558 22.324 19.0721 22.8089 19.6166 22.5138C20.6643 22.2314 17.5674 22.0952 18.3791 21.5949C17.4206 21.874 16.7125 21.2624 16.2408 20.6482C15.1653 20.3998 13.9222 19.8503 13.3851 18.8979C13.166 18.5411 13.7011 18.9488 13.196 18.3644C12.5483 17.7884 12.2249 17.1337 11.79 16.4333C11.2704 16.1564 11.2092 15.3404 11.157 16.4062C11.1612 15.7335 10.5295 15.2806 10.375 15.4685C10.3723 14.8207 11.0513 15.1456 10.5761 14.6664C10.474 13.995 10.1372 13.2953 10.0362 12.537C9.87919 12.1718 10.0139 11.3892 9.49929 12.2162C9.31206 13.0907 9.43738 11.1422 9.72887 11.7843C10.1114 11.129 9.591 11.2061 9.57015 11.2967C9.81929 10.7437 9.72812 9.95891 9.50483 10.2581C9.6377 9.67157 9.71493 8.10018 9.30663 8.37912C9.55419 7.76561 9.77621 5.57273 8.70057 6.40912C8.26515 6.41529 7.51046 6.5671 7.15429 6.74444C8.27217 7.36082 7.04153 6.96699 6.58589 6.8689C6.52674 7.43933 6.076 7.19305 5.51249 7.19859C6.4127 7.30986 5.07419 8.1188 4.55887 7.80454C3.88823 8.12454 5.13695 8.92454 4.57206 9.1721C4.64174 9.54433 3.54525 9.03731 3.63089 9.89848C2.98036 9.62422 3.54185 10.9197 3.86738 10.4815C4.97419 10.7812 4.64653 11.4637 4.67429 12.1126C4.49408 12.4903 3.78387 11.2243 4.51632 11.2828C3.93823 10.3442 3.87717 10.9433 3.39706 11.3794C3.28578 11.4108 4.62142 11.9999 3.78323 12.2907C4.52057 12.4049 4.54217 13.0504 4.69249 13.4588C5.13557 13.9205 5.04429 12.9487 5.57525 13.504C5.23908 13.0093 3.79706 12.1104 4.95823 12.3987C4.95185 11.9012 4.74802 11.4998 5.10419 11.5094C5.45695 10.8716 4.73483 13.0831 5.52929 12.272C5.74898 12.176 5.80408 11.6334 6.19919 12.3235C6.77302 12.8884 6.40653 13.2972 5.59674 12.7798C5.74142 13.2716 6.67983 13.4468 6.50312 14.2156C6.69015 14.8918 6.95185 14.6426 7.17993 14.6037C7.35866 15.2604 7.46046 14.7776 7.46876 14.4645C8.28749 14.6401 8.09546 15.1241 8.35206 15.4622C8.91621 15.7167 7.54451 13.7362 8.51291 14.8667C9.53185 15.787 8.89546 16.1709 7.98078 16.0236C8.55951 15.9768 8.74578 16.8062 9.47015 16.777C10.1303 17.0914 10.5776 18.2976 9.43951 17.7953C9.04504 17.4391 7.64738 17.0002 8.78908 17.6771C9.84227 18.1654 10.6798 18.4569 11.6961 19.0699C12.4231 19.5888 12.7374 20.1834 13.0129 20.3011C12.4015 20.5932 11.171 20.0681 12.0849 19.9074C11.5145 19.8037 10.8732 19.5151 11.4192 20.2253C11.8839 20.6135 13.0644 20.5723 13.2766 20.6161C13.0972 21.0114 12.7891 21.0427 13.2835 21.0733C12.7318 21.3675 13.4609 21.4135 13.5116 21.581ZM12.3834 18.3943C12.0475 18.0431 11.9606 17.3857 12.3237 17.9573C12.5101 18.0325 12.9199 19.0323 12.3834 18.3943ZM16.0587 20.7289C16.0648 20.8881 16.268 20.7151 16.0587 20.7289V20.7289ZM11.8535 17.5332C11.8401 17.0023 11.9744 17.9427 11.8535 17.5332V17.5332ZM11.4882 17.042C11.0654 16.226 12.0204 17.2729 11.4882 17.042V17.042ZM7.0611 13.9868C7.18355 14.4109 7.30951 13.9205 7.0611 13.9868V13.9868ZM10.5846 15.8962C10.737 15.3237 10.7634 16.3764 10.5846 15.8962V15.8962ZM8.09557 14.1654C7.92036 13.8497 8.46227 14.4619 8.09557 14.1654V14.1654ZM10.2312 14.85C9.83121 13.954 10.515 14.3602 10.3203 14.9968L10.2312 14.85ZM6.5478 12.3936C6.36908 12.0994 6.07334 11.2368 6.16866 10.9733C6.25419 11.4024 7.08068 12.8194 6.57344 11.5604C6.01355 10.5051 7.24344 11.9025 7.37004 12.1662C7.42919 12.4278 7.02429 12.0946 7.29834 12.7088C6.79823 12.0096 7.00334 13.095 6.5478 12.3936ZM5.40972 11.609C5.45632 10.9252 5.66993 12.0778 5.40972 11.609V11.609ZM5.92174 11.7856C6.16589 11.2696 6.33557 12.505 5.92174 11.7856V11.7856ZM4.68972 10.8327C4.266 10.411 3.95919 10.0229 4.70983 10.571C4.99855 10.5822 4.06717 9.68837 4.77951 10.2872C5.52791 10.4237 5.14876 11.5152 4.68972 10.8327ZM5.33664 10.816C5.46749 11.056 5.58302 10.5719 5.33664 10.816V10.816ZM5.73525 10.9433C5.36163 10.2441 6.18812 11.2369 5.73525 10.9433V10.9433ZM4.94366 10.1872C3.71174 9.08997 6.49142 10.7603 5.14472 10.3902L4.94366 10.1872ZM8.47398 12.2378C7.94046 11.9185 8.33206 9.98752 8.5144 11.3078C9.0327 11.1401 8.48568 11.9903 8.87185 11.9819C8.81142 12.5181 8.63823 12.711 8.47398 12.2378ZM9.77972 13.01C9.83185 12.4278 9.88961 13.4081 9.77972 13.01V13.01ZM9.55302 12.7853C9.55855 13.0782 9.61142 12.537 9.55302 12.7853V12.7853ZM5.18493 9.82678C4.39344 8.73454 7.48546 10.9314 5.69217 10.1037C5.50493 10.0543 5.27898 10.0369 5.18493 9.82678ZM7.69972 11.1598C7.62472 10.2401 7.86674 11.3119 7.69972 11.1598V11.1598ZM9.60855 12.3845C9.61983 12.7311 9.756 11.8608 9.60855 12.3845V12.3845ZM5.30674 9.41008C5.77706 9.30922 7.25589 10.2358 5.89802 9.67444C5.74717 9.50742 5.42504 9.58337 5.30674 9.41008ZM9.34621 11.4232C9.39653 10.4827 9.62749 10.8618 9.34834 11.5582L9.34621 11.4232ZM5.65653 9.08252C5.84844 8.80135 5.14717 7.81156 5.75727 8.72763C6.0211 8.93699 6.52036 9.07827 6.0794 9.16656C6.77291 9.77816 5.91046 9.3322 5.65653 9.08252ZM9.14642 11.1298C9.26344 11.7572 9.27876 10.0585 9.14642 11.1298V11.1298ZM5.25578 8.09327C5.33366 8.28859 5.40259 8.0305 5.25578 8.09327V8.09327ZM6.16642 8.63518C6.40068 8.14327 6.59834 9.18327 6.16642 8.63518V8.63518ZM8.73398 10.0633C8.73185 9.87476 8.78259 10.3381 8.73398 10.0633V10.0633ZM8.58504 9.73433C8.22887 8.85497 8.91695 10.1996 8.58504 9.73433V9.73433ZM8.36653 9.15752C8.30695 8.79433 8.56972 9.6139 8.36653 9.15752V9.15752ZM8.7227 8.5788C8.47791 8.14805 9.03174 6.67965 9.09366 7.59029C8.83547 8.29986 9.01919 8.69646 9.19855 7.74476C9.53121 6.99625 9.12695 9.22305 8.7227 8.5788ZM9.08866 6.39518C9.11238 6.55295 9.19525 6.26433 9.08866 6.39518V6.39518ZM8.47738 18.4388C8.33259 18.3122 8.496 18.5189 8.47738 18.4388V18.4388ZM9.73642 19.0754C10.4368 19.2556 10.4334 18.9668 9.80025 18.8805C9.46015 18.5641 8.38536 18.2281 9.34749 18.8416C9.41089 19.0031 9.61195 18.9988 9.73642 19.0754ZM7.25025 17.4238C7.63557 17.712 8.70334 18.2391 7.79972 17.5339C8.1044 17.1796 7.21674 16.9912 7.5111 16.7541C6.76185 16.2955 6.91961 16.3366 7.44504 16.3512C6.54483 15.9484 7.57504 15.979 7.52642 15.7725C7.17929 15.7042 5.80185 15.1602 6.61227 15.817C5.78866 15.3974 6.416 15.9735 6.16706 15.9129C5.32451 15.6834 6.91706 16.5544 6.03344 16.3381C6.51632 16.7206 7.33366 17.3189 6.23727 16.7428C6.09334 16.9508 7.02217 17.266 7.25025 17.4238ZM8.56685 18.1807C7.78142 17.5498 10.1676 18.6962 8.56685 18.1807V18.1807ZM15.3077 22.2641C15.0892 22.5354 15.3285 21.9462 15.3077 22.2641V22.2641ZM16.0006 22.5556C16.3699 22.1982 16.0159 23.126 16.6127 22.4681C16.6189 21.997 16.5946 21.7189 15.9268 22.2912C15.7424 22.3936 15.6605 22.8268 16.0006 22.5556ZM5.00259 15.6488C4.20738 15.2048 4.88908 15.2028 5.00259 15.6488V15.6488ZM5.74195 16.1335C4.76174 15.721 5.46717 15.6779 5.74195 16.1335V16.1335ZM9.95132 18.6719C10.3626 19.0372 11.8387 18.9398 10.4503 18.7172C10.2449 18.4132 9.14515 18.4862 9.95132 18.6719ZM15.737 22.2456C15.1242 22.4821 16.3693 21.7148 15.737 22.2456V22.2456ZM17.0525 23.1491C16.7798 23.2236 17.0565 22.9787 17.0525 23.1491V23.1491ZM17.0546 22.9105C16.3763 22.9543 17.755 22.169 17.0546 22.9105V22.9105ZM3.1827 14.1252C2.58589 13.2737 2.81195 12.891 2.236 12.1954C2.12663 11.6633 1.24823 10.457 1.78174 11.7349C2.27004 12.4827 2.41461 13.6402 3.1827 14.1252ZM16.8348 22.6747C16.3062 22.3122 18.124 21.8419 16.8348 22.6747V22.6747ZM17.8186 23.06C17.4101 22.9444 18.4641 22.5061 17.8186 23.06V23.06ZM4.78344 14.7073C4.30632 14.6719 4.96791 14.4325 4.78344 14.7073V14.7073ZM17.6132 22.797C18.2379 22.3943 17.4693 22.4561 17.4999 22.8338L17.6132 22.797ZM9.13472 17.4531C8.8044 17.476 9.11323 17.1804 9.13472 17.4531V17.4531ZM9.65855 17.7543C9.40259 17.8072 9.49164 17.4176 9.65855 17.7543V17.7543ZM18.6157 23.0691C19.4163 22.4916 18.1309 22.9584 18.448 23.179L18.6157 23.0691ZM18.309 22.9209C17.6209 23.1629 18.9614 22.3748 18.309 22.9209V22.9209ZM19.8754 23.9636C19.3433 23.869 20.3131 23.6707 19.8754 23.9636V23.9636ZM5.18493 14.5091C5.77132 14.6405 7.52983 15.9539 6.4927 14.6003C5.96132 14.4431 6.27993 13.1442 5.73802 13.3738C6.10185 13.9818 6.03695 14.2398 5.27312 13.8573C4.31398 13.3884 4.73408 14.089 4.92206 14.2824C4.66589 14.3408 5.26004 14.5043 5.18483 14.509M2.51142 12.3978C2.61642 11.9629 1.54376 10.0075 2.00504 11.4176C2.17121 11.7133 2.15398 12.2732 2.51142 12.3978ZM7.41844 15.4231C7.11589 15.1706 7.40387 15.3869 7.41844 15.4231V15.4231ZM8.16206 15.5965C7.33993 15.4092 8.16206 15.1358 8.16206 15.5965V15.5965ZM14.6108 19.661C14.1246 19.654 14.4877 19.3465 14.6108 19.661V19.661ZM14.9204 19.887C14.7414 19.9211 14.8743 19.711 14.9204 19.887V19.887ZM17.4761 21.4974C17.1693 21.4739 17.7217 21.3159 17.4761 21.4974V21.4974ZM3.84642 12.7388C3.09291 12.5447 4.54961 12.4667 3.84642 12.7388V12.7388ZM14.043 19.1622C13.5944 19.2757 14.0348 18.7073 14.043 19.1622V19.1622ZM3.56876 12.091C3.15068 11.991 4.02025 11.9389 3.56876 12.091V12.091ZM4.8794 12.7261C4.741 12.7833 4.87163 12.5767 4.8794 12.7261V12.7261ZM20.8688 22.5312C21.4496 22.4137 22.7734 22.827 22.987 22.3776C22.2816 22.3602 20.5474 21.8794 20.4653 22.4916L20.6197 22.516L20.8688 22.5312ZM5.296 12.8312C4.93642 12.8139 5.30663 12.37 5.296 12.8312V12.8312ZM1.85004 10.4403C1.25451 10.3073 1.69355 9.56156 1.85004 10.4403V10.4403ZM2.67153 10.6469C1.9194 10.3929 2.68206 10.3644 2.67153 10.6469V10.6469ZM3.1411 10.8778C3.00546 10.7678 3.03536 11.0161 3.1411 10.8778V10.8778ZM6.09685 12.7735C5.76717 12.6789 6.2361 12.6454 6.09685 12.7735V12.7735ZM2.82876 10.3575C1.87642 10.2581 2.74887 9.6939 2.82876 10.3575V10.3575ZM1.14312 9.2639C0.978869 9.37933 1.1194 8.95784 1.14312 9.2639V9.2639ZM1.39419 9.07486C1.17855 9.12061 1.35323 8.71156 1.39419 9.07486V9.07486ZM2.77876 9.90114C3.36451 9.67156 1.71217 9.42529 2.65908 9.85805L2.77876 9.90114ZM21.3134 21.3501C20.8376 21.2437 21.6883 21.0065 21.3134 21.3501V21.3501ZM23.5527 22.5104C23.1742 22.5689 23.703 22.0667 23.5527 22.5104V22.5104ZM2.92025 9.17561C2.45568 9.26114 2.98227 8.74582 2.92025 9.17561V9.17561ZM0.94972 7.85539C0.843975 7.2488 0.85855 6.18369 1.87078 6.54337C0.51972 6.81188 2.80642 8.22316 2.5177 7.1088C3.086 7.13678 3.6294 6.77295 3.33089 7.32444C4.45089 7.20135 5.22663 6.23029 6.30823 6.36667C7.15057 6.25476 8.07163 6.1705 8.97951 5.83103C9.72589 5.77742 10.4444 4.9739 10.0356 4.49742C9.01781 4.41124 7.95195 4.53848 6.82717 4.76252C5.58068 5.02124 4.44823 5.51369 3.19036 5.72529C1.96387 5.89018 3.43664 6.1788 3.08525 6.24348C2.44589 6.46539 3.84844 6.61497 3.00249 6.84933C2.48015 6.74997 1.9361 6.5705 2.1594 6.01954C0.985146 6.17252 -0.0471949 6.65944 0.88089 7.85454L0.94972 7.85539ZM3.78036 6.4139C4.05515 5.39976 5.25504 7.2488 4.2311 6.5489C4.10929 6.45699 3.90749 6.38252 3.78036 6.4139ZM3.83376 5.92199C4.04461 6.08837 4.2311 5.62646 3.83376 5.92199V5.92199ZM4.33812 5.9305C4.37451 5.46369 5.49376 6.17741 4.52259 6.09816L4.33812 5.9305ZM5.02823 5.65295C5.10142 5.91444 5.28078 5.35784 5.02823 5.65295V5.65295ZM5.20504 5.53476C5.62515 5.03039 7.58195 5.21252 6.14961 5.48518C5.76557 5.19582 5.47142 5.65561 5.20504 5.53476ZM7.75929 5.14093C7.6961 3.76273 9.02887 5.62997 7.75929 5.14093V5.14093ZM8.48429 5.13667C8.74919 4.44252 9.51302 4.85784 8.60738 4.99688C8.62674 5.07135 8.58025 5.35593 8.48429 5.13667ZM2.63461 8.81944C1.79419 8.39869 3.4261 8.33454 2.63461 8.81944V8.81944ZM3.22025 8.98156C2.61642 8.86188 3.49791 8.68667 3.22025 8.98156V8.98156ZM1.49515 7.75795C0.959507 7.62582 1.94727 7.41008 1.49515 7.75795V7.75795ZM24.8743 22.3838C24.5285 22.5653 24.8875 21.9803 24.8743 22.3838V22.3838ZM22.4987 20.7622C22.1933 20.8026 22.5661 20.2984 22.4987 20.7622V20.7622ZM25.5275 22.5404C26.1599 22.5425 27.4439 22.3434 26.0679 22.3441C25.8516 22.3776 24.8096 22.3707 25.5275 22.5404ZM3.73515 8.69688C4.24717 8.6621 4.53578 8.13263 3.63557 8.16263C2.24089 8.01869 4.8661 8.64061 3.45685 8.46252C3.2677 8.58773 3.72387 8.73167 3.73515 8.69688ZM4.18589 8.92518C4.02717 9.09965 4.13227 8.59678 4.18589 8.92518V8.92518ZM4.72078 7.49901C4.41334 7.42529 4.9427 7.22348 4.72078 7.49901V7.49901ZM3.01781 4.65327C3.93195 4.34305 5.18132 3.9938 5.6127 4.80646C5.17366 4.27848 5.43536 3.75805 5.84993 4.53093C6.43632 5.3122 6.72972 4.1755 6.34855 3.91316C6.78344 4.45295 7.27727 4.70837 6.63929 3.94741C7.33291 3.11327 5.25153 4.05656 4.77855 4.04678C4.5511 4.1489 2.42855 4.58795 3.01781 4.65327ZM3.55355 3.62805C4.07472 3.23507 5.356 3.86242 4.53376 3.23699C4.45312 3.16614 2.73355 3.71146 3.55355 3.62805ZM5.45344 3.70656C6.06281 3.72188 5.19057 2.8871 5.91674 3.2655C5.79781 2.87603 5.07089 2.80295 4.71546 2.6472C4.5144 3.00337 5.12429 3.71146 5.45344 3.70656ZM3.88663 1.98199C3.51663 2.12741 4.09749 1.69614 3.88663 1.98199V1.98199ZM4.66323 2.16763C5.646 2.03763 4.41259 1.74476 4.46472 2.15731L4.66323 2.16763ZM3.21323 1.0338C2.521 0.130181 4.51483 1.1855 3.81142 0.23933C3.21951 -0.231521 2.65121 0.770181 3.21323 1.0338ZM12.093 5.81646C12.4105 5.25422 10.7832 5.05816 11.8795 5.61731C11.9804 5.65082 11.9576 5.85529 12.093 5.81646ZM5.64983 26.7549C5.57961 27.0321 5.5361 27.4973 5.51983 28.1503C5.51983 28.2786 5.46206 28.3428 5.34621 28.3428C5.23036 28.3428 5.14972 28.2868 5.10408 28.1752C4.98004 27.8733 4.86259 27.6627 4.75046 27.5425C4.61834 27.4021 4.44259 27.3172 4.22334 27.2883C3.9877 27.251 3.40068 27.2324 2.46217 27.2324C2.24727 27.2324 2.10653 27.2553 2.04057 27.3009C1.99919 27.3296 1.97855 27.3918 1.97855 27.487V30.2965C1.97855 30.3916 2.03844 30.4369 2.15812 30.4329C2.52632 30.4287 3.05961 30.4036 3.75812 30.3585C3.89472 30.3417 3.98685 30.2973 4.03429 30.2249C4.08217 30.1525 4.12866 29.9657 4.17387 29.6637C4.20259 29.4983 4.30004 29.4341 4.46536 29.4716C4.60578 29.5005 4.66621 29.5647 4.64546 29.6637C4.52951 30.2262 4.49206 30.9581 4.53344 31.8594C4.53781 31.9667 4.46961 32.0248 4.32887 32.0331C4.21291 32.0455 4.14057 31.9834 4.11185 31.8469C4.00461 31.3302 3.80472 31.054 3.51355 31.0187C3.22206 30.9838 2.74727 30.9661 2.09015 30.9661C2.01568 30.9661 1.97855 30.9928 1.97855 31.0467V33.8376C1.97855 34.0444 2.05483 34.1852 2.2077 34.2593C2.32791 34.3214 2.58621 34.3773 2.98291 34.4269C3.18578 34.4475 3.2744 34.5367 3.24993 34.6935C3.22493 34.83 3.04323 34.8838 2.70387 34.8549C1.72408 34.7761 0.915571 34.7804 0.279082 34.8675C0.101103 34.892 0.012486 34.8197 0.012486 34.6504C0.012486 34.5426 0.101103 34.4807 0.279082 34.4642C0.684294 34.4186 0.886741 34.063 0.886741 33.3975V28.0882C0.886741 27.8156 0.838018 27.6058 0.741103 27.4589C0.643763 27.3121 0.462805 27.1786 0.19855 27.0588C0.0330179 26.9843 -0.028897 26.8832 0.0123796 26.7549C0.0330179 26.6765 0.0662094 26.6328 0.111422 26.6248C0.152805 26.6122 0.262592 26.6205 0.440039 26.6497C0.700678 26.6909 1.31483 26.7117 2.28217 26.7117C3.42355 26.7117 4.4094 26.6867 5.24068 26.6372C5.51759 26.6204 5.65632 26.6433 5.65632 26.7053C5.65632 26.7221 5.65419 26.7384 5.64983 26.7549ZM9.67185 34.6279C9.67185 34.7934 9.57876 34.8657 9.39281 34.845C8.82259 34.7911 8.11536 34.7992 7.27195 34.8695C7.10227 34.8864 6.99812 34.882 6.95855 34.8575C6.91919 34.8325 6.89983 34.7644 6.89983 34.6524C6.89983 34.5535 7.01227 34.4699 7.23759 34.4014C7.46323 34.3334 7.57557 34.1297 7.57557 33.7907V28.1777C7.57557 27.8426 7.52695 27.5967 7.43004 27.4394C7.3327 27.2823 7.16217 27.1604 6.91834 27.0738C6.79004 27.0281 6.72578 26.964 6.72578 26.8812C6.72578 26.7572 6.81887 26.6642 7.00493 26.6022C7.28621 26.5112 7.57781 26.3709 7.87972 26.1805C8.1278 26.0316 8.28504 25.9574 8.35089 25.9574C8.50376 25.9574 8.58057 26.0625 8.58057 26.2735C8.58057 26.2572 8.57227 26.4639 8.55546 26.8937C8.54344 27.3029 8.53919 27.706 8.54344 28.1033L8.56791 33.6416C8.56791 33.8939 8.63004 34.077 8.75408 34.1907C8.87812 34.3043 9.09132 34.3798 9.39281 34.4169C9.57876 34.4374 9.67185 34.5077 9.67185 34.6278M15.2813 34.2622C15.2813 34.3492 15.1232 34.4803 14.8071 34.6558C14.4906 34.8317 14.2373 34.9195 14.0473 34.9195C13.8858 34.9195 13.7433 34.8411 13.6193 34.6839C13.4953 34.5268 13.4081 34.4484 13.3587 34.4484C13.3215 34.4484 13.1251 34.5332 12.7693 34.7024C12.4141 34.8721 12.0562 34.957 11.6965 34.957C11.3576 34.957 11.0742 34.8575 10.8468 34.6594C10.5988 34.4401 10.4747 34.1424 10.4747 33.766C10.4747 33.0507 11.2934 32.5382 12.9309 32.2281C13.2117 32.1742 13.3547 32.0605 13.3586 31.8869L13.3712 31.4899C13.3961 30.8119 13.0963 30.4729 12.4718 30.4729C12.294 30.4729 12.1256 30.6319 11.9661 30.9502C11.8073 31.2689 11.5786 31.4403 11.2809 31.4653C10.942 31.4981 10.7723 31.3555 10.7723 31.0372C10.7723 30.8386 11.0246 30.6074 11.529 30.3425C12.0583 30.0656 12.5671 29.9269 13.0549 29.9269C13.8941 29.9269 14.3096 30.3261 14.3014 31.1241L14.2764 33.6791C14.2726 33.9479 14.3863 34.0822 14.6176 34.0822C14.6632 34.0822 14.7501 34.072 14.8781 34.0512C15.0065 34.0306 15.081 34.0202 15.1017 34.0202C15.2214 34.0202 15.2813 34.1011 15.2813 34.2622ZM13.3712 32.8484C13.3755 32.7449 13.3513 32.6764 13.2996 32.6437C13.2479 32.6106 13.1666 32.604 13.0549 32.6248C12.0583 32.8026 11.56 33.1273 11.56 33.5986C11.56 34.0741 11.8184 34.3118 12.3353 34.3118C12.5421 34.3118 12.7553 34.2726 12.974 34.1942C13.2307 34.1029 13.3587 33.9936 13.3587 33.8652L13.3712 32.8484ZM19.8924 33.5487C19.8924 33.987 19.7234 34.3356 19.3867 34.5939C19.0498 34.8524 18.5899 34.9816 18.0067 34.9816C17.6182 34.9816 17.2293 34.9403 16.8408 34.8575C16.5057 34.7831 16.3114 34.715 16.2577 34.653C16.2245 34.5948 16.2081 34.3119 16.2081 33.8032C16.2081 33.584 16.2577 33.4702 16.3571 33.4621C16.4562 33.4495 16.5411 33.5035 16.6113 33.6232C16.9213 34.165 17.4217 34.4359 18.1123 34.4359C18.6949 34.4359 18.9865 34.2331 18.9865 33.8277C18.9865 33.6503 18.9206 33.5012 18.788 33.3815C18.6432 33.245 18.3625 33.0857 17.9447 32.9038C17.3409 32.6352 16.9377 32.3995 16.7353 32.1967C16.516 31.9818 16.4065 31.6924 16.4065 31.3284C16.4065 30.8817 16.5781 30.5347 16.9213 30.2866C17.2396 30.0466 17.6656 29.9269 18.1988 29.9269C18.5339 29.9269 18.8397 29.9535 19.1171 30.0074C19.4147 30.0612 19.5697 30.1272 19.5822 30.2059C19.6149 30.4372 19.6834 30.7723 19.7868 31.2108C19.7993 31.2642 19.7411 31.3077 19.6132 31.3408C19.4766 31.3698 19.3858 31.3469 19.3401 31.2727C19.0137 30.7391 18.6003 30.4725 18.0997 30.4725C17.5333 30.4725 17.25 30.6544 17.25 31.0183C17.25 31.221 17.3266 31.3821 17.4795 31.5019C17.6161 31.6053 17.9364 31.7668 18.4409 31.986C18.9701 32.2134 19.3298 32.4181 19.5203 32.5999C19.7683 32.8354 19.8924 33.152 19.8924 33.5487ZM27.1889 34.6341C27.1889 34.7788 27.0915 34.8554 26.8973 34.8636C26.6078 34.8678 26.2292 34.8885 25.7624 34.9256C25.5307 34.9712 25.3653 34.9424 25.2662 34.839C24.6128 34.1361 24.0585 33.4001 23.6037 32.6308C23.5666 32.5649 23.5192 32.5318 23.4611 32.5318C23.3909 32.5318 23.2691 32.5938 23.0955 32.7179C22.9008 32.8252 22.8039 32.9784 22.8039 33.1765C22.8039 33.3173 22.8077 33.5198 22.8163 33.7848C22.8246 34.0491 22.8905 34.2226 23.0145 34.3054C23.1014 34.3636 23.3023 34.4088 23.6161 34.442C23.8105 34.4669 23.9078 34.5392 23.9078 34.659C23.9078 34.7542 23.8923 34.8133 23.8612 34.8356C23.8304 34.8584 23.7484 34.8636 23.6161 34.8511C23.2027 34.8141 22.5041 34.8348 21.52 34.9132C21.272 34.9338 21.1375 34.9027 21.1168 34.8201C21.1087 34.7914 21.1043 34.7499 21.1043 34.696C21.1043 34.5682 21.2306 34.4707 21.483 34.405C21.7104 34.3467 21.824 34.0801 21.824 33.6046V28.1839C21.824 27.845 21.791 27.6093 21.7245 27.4771C21.6337 27.3074 21.4432 27.1751 21.1539 27.08C21.0177 27.0348 20.9493 26.9706 20.9493 26.8878C20.9493 26.7676 21.0466 26.6747 21.2408 26.6088C21.5533 26.5043 21.8513 26.3604 22.1276 26.1807C22.3551 26.0321 22.4959 25.9575 22.5493 25.9575C22.7191 25.9575 22.8039 26.0648 22.8039 26.2802C22.8039 26.2509 22.8017 26.4559 22.7974 26.894C22.7929 27.2992 22.7909 27.7045 22.7914 28.1098L22.8039 31.9921C22.8039 32.0998 22.8327 32.1532 22.8905 32.1532C22.9525 32.1532 23.0477 32.0998 23.176 31.9921C23.5192 31.7233 23.9409 31.3719 24.441 30.9377C24.5405 30.8344 24.5899 30.7517 24.5899 30.6896C24.5899 30.5782 24.4225 30.4992 24.0878 30.4541C23.9431 30.4372 23.8746 30.3568 23.8827 30.212C23.8953 30.0673 23.9677 30.0053 24.0998 30.0259C24.3979 30.0674 24.8321 30.0902 25.4023 30.0944C25.7994 30.0983 26.1943 30.1005 26.5872 30.1005C26.715 30.1048 26.7793 30.181 26.7793 30.3301C26.7793 30.4705 26.678 30.5471 26.4756 30.5597C26.1568 30.5717 25.8571 30.644 25.5763 30.7767C25.1834 30.9541 24.7635 31.2664 24.317 31.7131C24.2842 31.7379 24.2674 31.7689 24.2674 31.806C24.2674 31.8638 24.3376 32.0025 24.4784 32.2217C24.9953 33.0073 25.4832 33.6004 25.942 34.0017C26.2357 34.2538 26.5105 34.3799 26.7667 34.3799C26.9572 34.3799 27.075 34.3933 27.1203 34.4203C27.166 34.4472 27.1889 34.5186 27.1889 34.6341Z" fill="black"/>
</g>
<defs>
<clipPath id="clip0_2415_309">
<rect width="27.234" height="35" fill="white"/>
</clipPath>
</defs>
</svg>
