<svg width="16" height="16" viewBox="0 0 16 16" fill="none" xmlns="http://www.w3.org/2000/svg">
<path d="M1 1H15V15H1V1Z" fill="#F5DE19"/>
<path d="M10.4045 11.9376C10.524 12.1797 10.7094 12.3832 10.9393 12.5247C11.1693 12.6663 11.4345 12.74 11.7045 12.7376C12.2495 12.7376 12.598 12.4651 12.598 12.0876C12.598 11.6376 12.24 11.4766 11.64 11.2141L11.311 11.0731C10.361 10.6686 9.73104 10.1621 9.73104 9.09105C9.73104 8.10455 10.481 7.35305 11.6575 7.35305C12.0384 7.32561 12.4189 7.41088 12.7516 7.59822C13.0843 7.78556 13.3545 8.06669 13.5285 8.40655L12.5 9.06405C12.433 8.89555 12.3163 8.7514 12.1655 8.65068C12.0147 8.54996 11.8369 8.49743 11.6555 8.50005C11.5764 8.49213 11.4965 8.50078 11.4209 8.52544C11.3453 8.55011 11.2757 8.59025 11.2165 8.64331C11.1573 8.69637 11.1097 8.76118 11.0769 8.83362C11.0442 8.90606 11.0268 8.98454 11.026 9.06405C11.026 9.45855 11.2705 9.61855 11.835 9.86405L12.164 10.0051C13.282 10.4846 13.914 10.9731 13.914 12.0716C13.914 13.2561 12.9835 13.9051 11.734 13.9051C11.2472 13.9358 10.7619 13.8251 10.3366 13.5864C9.91122 13.3477 9.56393 12.9911 9.33654 12.5596L10.4045 11.9376ZM5.75704 12.0516C5.96354 12.4181 6.15154 12.7281 6.60354 12.7281C7.03554 12.7281 7.30854 12.5591 7.30854 11.9016V7.42805H8.62403V11.9191C8.62403 13.2811 7.82404 13.9011 6.65954 13.9011C6.24791 13.9236 5.83911 13.821 5.48688 13.6068C5.13464 13.3926 4.85546 13.0769 4.68604 12.7011L5.75704 12.0516Z" fill="black"/>
</svg>
