<svg width="16" height="16" viewBox="0 0 16 16" fill="none" xmlns="http://www.w3.org/2000/svg">
<path d="M6.87654 3.25075L4.20404 1.90213L1.26929 3.36625L4.01541 4.74463L6.87654 3.25075ZM8.10254 3.86963L10.9052 5.285L7.99779 6.74438L5.24779 5.364L8.10254 3.86963ZM11.846 1.922L14.7257 3.366L12.15 4.659L9.34191 3.24225L11.846 1.922ZM10.6067 1.3L8.01416 0L5.44979 1.28L8.12129 2.62675L10.6067 1.3ZM8.58004 12.4628V16L11.7203 14.4329L11.7174 10.8941L8.58004 12.4628ZM11.7159 9.65875L11.7124 6.15725L8.57991 7.7145V11.2175L11.7159 9.65875ZM15.4857 9.003V12.5542L12.8069 13.8905L12.8048 10.3556L15.4857 9.003ZM15.4857 7.76113V4.28125L12.8019 5.61538L12.8039 9.12387L15.4857 7.76113Z" fill="#4DABCF"/>
<path d="M7.47128 7.71454L5.35653 6.65054V11.2463C5.35653 11.2463 2.76903 5.74216 2.53003 5.24754C2.49928 5.18341 2.37215 5.11379 2.33978 5.09641C1.8734 4.85304 0.514404 4.16516 0.514404 4.16516V12.2873L2.3944 13.2952V9.04779C2.3944 9.04779 4.95415 13.966 4.98053 14.0203C5.00728 14.0739 5.26265 14.5915 5.5379 14.7738C5.9029 15.0162 7.47015 15.9584 7.47015 15.9584L7.47128 7.71454Z" fill="#4C75CF"/>
</svg>
