<svg width="16" height="16" viewBox="0 0 16 16" fill="none" xmlns="http://www.w3.org/2000/svg">
<path d="M1.41925 14.3892C1.11425 14.3892 0.804375 14.2632 0.609875 14.0161V15.3507H0V12.0564H0.551625L0.573375 12.4176C0.762625 12.139 1.09887 11.9919 1.41937 11.9923C2.034 11.9923 2.48738 12.5073 2.48738 13.1906C2.48738 13.874 2.03375 14.3897 1.41912 14.3894L1.41925 14.3892ZM1.23038 12.445C0.87425 12.445 0.583625 12.7235 0.583625 13.1912C0.583625 13.659 0.8725 13.9375 1.23 13.9375C1.5875 13.9375 1.87575 13.659 1.87575 13.1912C1.87575 12.7235 1.58738 12.445 1.23025 12.445H1.23038ZM4.78562 14.3267L4.7645 13.9642C4.5755 14.2427 4.239 14.3899 3.91875 14.3899C3.30375 14.3899 2.851 13.8747 2.851 13.1915C2.851 12.5085 3.30288 11.9932 3.91875 11.9936C4.23888 11.9936 4.5755 12.1419 4.7645 12.4191L4.78575 12.0568H5.3375V14.327L4.78562 14.3267ZM4.108 12.4451C3.752 12.4451 3.46163 12.7236 3.46163 13.1914C3.46163 13.6591 3.75037 13.9376 4.10787 13.9376C4.46537 13.9376 4.75413 13.6591 4.75413 13.1917C4.75413 12.7242 4.46537 12.447 4.10787 12.4452L4.108 12.4451ZM7.47025 14.3272V13.07C7.47025 12.6286 7.31775 12.4814 7.03937 12.4814C6.7505 12.4814 6.43513 12.7439 6.43475 13.0592V14.3258H5.8255V12.0568H6.38413L6.41012 12.4774C6.56262 12.1883 6.90425 11.9939 7.251 11.9939C7.85512 11.9939 8.0815 12.4145 8.0815 12.9769V14.3272H7.47025ZM10.3147 14.3275L10.2935 13.9649C10.1046 14.2434 9.76838 14.3904 9.44763 14.3904C8.83288 14.3904 8.37988 13.8754 8.37988 13.1923C8.37988 12.5091 8.83188 11.9943 9.44763 11.9943C9.75225 11.9943 10.0625 12.1205 10.2569 12.3675V11.1746H10.8664V14.3276L10.3147 14.3275ZM9.63725 12.4471C9.27975 12.4471 8.99063 12.7256 8.99063 13.1934C8.99063 13.6611 9.27938 13.9392 9.63688 13.9396C9.99438 13.9396 10.2831 13.6611 10.2831 13.1934C10.2831 12.7256 9.99437 12.4471 9.63725 12.4471ZM13.1569 14.3279L13.136 13.9654C12.9467 14.2439 12.6102 14.3911 12.29 14.3907C11.6751 14.3907 11.2222 13.8758 11.2222 13.1927C11.2222 12.5096 11.6742 11.9945 12.29 11.9948C12.6102 11.9948 12.9467 12.1431 13.136 12.4204L13.1571 12.0579H13.7102V14.3279H13.1569ZM12.4792 12.4471C12.1219 12.4471 11.833 12.7256 11.833 13.1934C11.833 13.6611 12.1219 13.9396 12.4792 13.9396C12.8366 13.9396 13.1255 13.6611 13.1255 13.1934C13.1255 12.7256 12.8367 12.4471 12.4792 12.4471ZM15.0595 14.4017C14.7388 14.3992 14.4247 14.3103 14.1503 14.1442L14.25 13.7225C14.434 13.8329 14.7125 13.975 15.0487 13.975C15.2904 13.975 15.4587 13.9014 15.4587 13.712C15.4587 13.5494 15.2854 13.4914 14.9751 13.4179C14.4185 13.2969 14.2186 13.0028 14.2189 12.6821C14.2189 12.3261 14.4974 11.9886 15.1123 11.9886C15.4854 11.9886 15.811 12.1518 15.8834 12.1936L15.7846 12.5955C15.5861 12.4758 15.3596 12.4105 15.1279 12.4061C14.8809 12.4061 14.7599 12.4901 14.7599 12.6267C14.7599 12.779 14.9176 12.8475 15.1594 12.9052C15.7581 13.0315 16 13.3099 16 13.6149C16 14.1024 15.6425 14.4017 15.0595 14.4017ZM6.55475 1.23438H7.63737V3.48288H6.55475V1.23438ZM6.55475 5.85288H7.63737V8.10125H6.55475V5.85288Z" fill="#130754"/>
<path d="M6.55469 4.13953H7.63744V5.20028H6.55469V4.13953Z" fill="#FFCA00"/>
<path d="M4.81519 3.08313H5.89794V10.5569H4.81519V3.08313ZM8.25819 7.70788H9.34106V9.95625H8.25819V7.70788ZM8.25819 3.08588H9.34106V5.33425H8.25819V3.08588Z" fill="#130754"/>
<path d="M8.2583 5.99048H9.34118V7.0511H8.2583V5.99048Z" fill="#E70488"/>
<path d="M9.96118 0.649292H11.0441V8.12279H9.96118V0.649292Z" fill="#130754"/>
</svg>
