<svg width="35" height="35" viewBox="0 0 35 35" fill="none" xmlns="http://www.w3.org/2000/svg">
<path d="M25.651 25.1869C25.8656 23.4005 25.8014 23.1383 27.1319 23.4279L27.4696 23.4574C28.4928 23.5039 29.8313 23.2928 30.6177 22.9275C32.3105 22.1419 33.3141 20.8308 31.6453 21.175C27.8379 21.9606 27.5762 20.6714 27.5762 20.6714C31.5966 14.7063 33.2771 7.13401 31.8263 5.28038C27.8696 0.224793 21.0209 2.61546 20.9063 2.67725L20.8696 2.68409C20.1174 2.52796 19.2755 2.43471 18.3297 2.4194C16.6067 2.39096 15.2994 2.87112 14.3077 3.62307C14.3077 3.62307 2.08968 -1.41064 2.65816 9.95343C2.77901 12.3709 6.12316 28.2458 10.1121 23.4508C11.57 21.6976 12.9788 20.215 12.9788 20.215C13.6782 20.6796 14.516 20.9169 15.3943 20.8316L15.4624 20.7736C15.4411 20.9913 15.4504 21.2043 15.4895 21.4564C14.4622 22.6046 14.7641 22.8061 12.7097 23.2288C10.631 23.657 11.8522 24.4196 12.6493 24.619C13.6159 24.8607 15.8518 25.203 17.3628 23.0883L17.3026 23.3294C17.7057 23.6521 17.6786 25.6474 17.7355 27.0728C17.7926 28.4985 17.8881 29.8288 18.1787 30.6133C18.4694 31.3975 18.8123 33.4176 21.5122 32.8391C23.7686 32.3567 25.4937 31.6608 25.651 25.1869Z" fill="black"/>
<path d="M20.6329 34.2496C19.4388 34.2496 18.6612 33.7878 18.189 33.3418C17.4761 32.6692 17.1934 31.8027 17.0244 31.285L16.9514 31.069C16.6112 30.1508 16.4958 28.8288 16.4275 27.1263C16.4171 26.8707 16.41 26.6073 16.4021 26.3282C16.3963 26.1239 16.3892 25.8677 16.3788 25.5997C15.9486 25.8048 15.492 25.9492 15.022 26.0285C14.1801 26.1723 13.275 26.1258 12.3314 25.8898C11.6656 25.7233 10.9738 25.3782 10.5795 24.8453C9.43021 25.8518 8.334 25.7154 7.73682 25.5161C6.68326 25.1647 5.74045 24.1773 4.85424 22.4981C4.22287 21.3018 3.61228 19.7432 3.03916 17.8653C2.04111 14.595 1.40701 11.1505 1.35068 10.0195C1.1735 6.47989 2.12642 3.9484 4.1824 2.49617C7.42564 0.205316 12.3396 1.55254 14.1312 2.16422C15.3348 1.43879 16.751 1.08578 18.3511 1.11121C19.2105 1.12516 20.0289 1.20063 20.7891 1.33625C21.5821 1.08688 23.1483 0.728949 24.9412 0.75137C28.2446 0.790745 30.982 2.07809 32.857 4.47422C34.1952 6.18375 33.5335 9.77371 33.0202 11.7616C32.2978 14.5578 31.032 17.5317 29.4773 20.1206C29.8995 20.1236 30.5112 20.073 31.3807 19.8934C33.0962 19.5393 33.598 20.4591 33.7342 20.8709C34.2797 22.523 31.9084 23.7715 31.1688 24.115C30.221 24.5549 28.6758 24.8229 27.4104 24.7649L27.3551 24.7614L27.0226 24.7321L26.9898 25.0094L26.9581 25.2804C26.8731 28.5613 26.4044 30.6392 25.44 32.0121C24.4291 33.4515 23.0242 33.8548 21.7866 34.12C21.3644 34.2103 20.9808 34.2496 20.6329 34.2496ZM18.1201 22.3084C18.8909 22.9252 18.9584 24.086 19.0188 26.2552C19.0265 26.5259 19.0336 26.7821 19.0432 27.0213C19.0722 27.7459 19.1403 29.4426 19.406 30.1596C19.4435 30.261 19.4771 30.3638 19.5127 30.4729C19.8088 31.3797 19.9573 31.8344 21.2378 31.5607C22.3127 31.3302 22.8653 31.1234 23.2979 30.5077C23.9265 29.6124 24.2781 27.8116 24.3427 25.1551L25.6505 25.1868L24.3517 25.031L24.39 24.7067C24.5144 23.6375 24.6041 22.8654 25.3186 22.3546C25.892 21.945 26.5452 21.9846 27.0656 22.0784C26.4938 21.6464 26.3358 21.1397 26.2937 20.9319L26.1845 20.3946L26.4911 19.9398C28.2567 17.3203 29.7124 14.1009 30.4857 11.1067C31.2803 8.03028 31.0381 6.39649 30.7958 6.0875C27.5887 1.9895 22.0272 3.68153 21.4464 3.87348L21.3483 3.92653L20.8561 4.01813L20.604 3.9659C19.9089 3.82153 19.1367 3.74168 18.309 3.72828C17.0085 3.70641 15.9594 4.01375 15.0991 4.66645L14.5022 5.11899L13.8096 4.83379C12.3297 4.22867 7.98318 3.01215 5.68959 4.63664C4.41646 5.53844 3.8365 7.30539 3.96557 9.88856C4.00822 10.7414 4.58764 13.9699 5.54357 17.101C6.86455 21.4282 8.06494 22.8656 8.56615 23.0327C8.65365 23.0622 8.8806 22.8859 9.10646 22.6146C10.0482 21.4857 11.0233 20.3851 12.0306 19.3142L12.788 18.5172L13.7038 19.1255C14.0729 19.3708 14.4801 19.51 14.8981 19.5363L17.0821 17.6736L16.7657 20.9023C16.7586 20.9748 16.7551 21.0735 16.7835 21.2567L16.8787 21.8687L16.4658 22.3302L16.4182 22.3838L17.618 22.9375L18.1201 22.3084Z" fill="black"/>
<path d="M31.6451 21.175C27.8375 21.9606 27.5758 20.6713 27.5758 20.6713C31.5961 14.706 33.2767 7.13343 31.8264 5.28035C27.8697 0.225033 21.0204 2.6157 20.9061 2.67777L20.8692 2.68433C20.117 2.5282 19.2751 2.43523 18.3287 2.41992C16.6058 2.39175 15.299 2.87163 14.3072 3.62359C14.3072 3.62359 2.08896 -1.40985 2.65716 9.95394C2.77802 12.3717 6.12216 28.2466 10.1111 23.4516C11.569 21.6984 12.9775 20.2158 12.9775 20.2158C13.6772 20.6803 14.5148 20.9177 15.3928 20.8324L15.4611 20.7744C15.4398 20.9921 15.4497 21.2051 15.4885 21.4572C14.4609 22.6053 14.7628 22.8069 12.7085 23.2296C10.6298 23.6578 11.851 24.4204 12.6483 24.6198C13.6146 24.8615 15.8508 25.2038 17.3615 23.0891L17.3011 23.3302C17.7039 23.6529 17.9866 25.428 17.9393 27.0372C17.8917 28.6464 17.86 29.7514 18.1775 30.6143C18.4947 31.4773 18.8108 33.4187 21.5112 32.8401C23.7676 32.3567 24.9368 31.1035 25.0998 29.0134C25.2152 27.5272 25.4763 27.7471 25.493 26.4184L25.7027 25.7895C25.9445 23.7751 25.741 23.1254 27.1315 23.4276L27.4692 23.4571C28.4924 23.5036 29.8314 23.2925 30.6175 22.9272C32.3101 22.1421 33.3139 20.8307 31.6451 21.175Z" fill="#336791"/>
<path d="M20.7696 33.4433C18.5186 33.4433 17.8055 31.6607 17.5138 30.9318C17.0867 29.8634 16.9945 25.7176 17.0897 22.3177C17.0911 22.2603 17.1038 22.2038 17.1272 22.1514C17.1505 22.0991 17.184 22.0518 17.2257 22.0124C17.2673 21.973 17.3164 21.9422 17.37 21.9219C17.4237 21.9015 17.4808 21.892 17.5381 21.8938C17.5954 21.8954 17.6518 21.9082 17.7041 21.9316C17.7564 21.955 17.8036 21.9884 17.8429 22.03C17.8823 22.0717 17.9131 22.1206 17.9335 22.1742C17.9539 22.2277 17.9636 22.2847 17.9619 22.342C17.8523 26.2634 18.0079 29.817 18.324 30.6077C18.8172 31.8407 19.5654 32.9191 21.6804 32.466C23.6883 32.0354 24.4402 31.2741 24.7752 29.3324C25.0322 27.8425 25.5405 23.6036 25.6031 22.7672C25.6073 22.71 25.6228 22.6543 25.6485 22.6031C25.6743 22.5519 25.7099 22.5063 25.7534 22.4689C25.7968 22.4315 25.8472 22.403 25.9017 22.3852C25.9561 22.3673 26.0136 22.3603 26.0707 22.3647C26.1861 22.3734 26.2932 22.4276 26.3687 22.5152C26.4441 22.6029 26.4817 22.7169 26.4732 22.8323C26.4079 23.7032 25.902 27.9338 25.6351 29.4809C25.2397 31.7742 24.2174 32.8144 21.8633 33.3191C21.4633 33.4047 21.0999 33.443 20.7696 33.4433ZM8.56442 24.7368C8.36768 24.7361 8.17232 24.7038 7.98583 24.6411C6.52376 24.1532 5.13114 21.7722 3.84653 17.5631C2.86872 14.3593 2.24911 11.0151 2.1947 9.9282C2.03364 6.70602 2.86325 4.42637 4.6611 3.15297C8.21771 0.632969 14.2008 3.03266 14.4537 3.13602C14.5609 3.17978 14.6462 3.26432 14.6911 3.37103C14.7359 3.47775 14.7365 3.59789 14.6927 3.70504C14.6489 3.81219 14.5644 3.89756 14.4577 3.94238C14.351 3.9872 14.2308 3.98779 14.1237 3.94402C14.066 3.92051 8.32872 1.62199 5.16368 3.86609C3.62642 4.95602 2.92067 6.98109 3.06587 9.88473C3.11153 10.8005 3.6904 14.0642 4.68079 17.3083C5.82759 21.0659 7.13271 23.4368 8.26173 23.8134C8.43892 23.8724 8.97814 24.0521 9.74896 23.1251C10.6479 22.0455 11.5805 20.9945 12.5454 19.9735C12.6261 19.8929 12.7352 19.8472 12.8492 19.8461C12.9633 19.8449 13.0732 19.8885 13.1555 19.9674C13.2379 20.0463 13.2861 20.1543 13.2898 20.2683C13.2935 20.3822 13.2524 20.4931 13.1754 20.5772C13.1623 20.5909 11.85 21.9627 10.42 23.6832C9.74267 24.4978 9.09353 24.7368 8.56442 24.7368ZM27.5489 21.0604C27.4698 21.0603 27.3922 21.0387 27.3245 20.9979C27.2567 20.9571 27.2013 20.8987 27.1642 20.8288C27.127 20.759 27.1096 20.6804 27.1137 20.6014C27.1178 20.5224 27.1433 20.446 27.1874 20.3804C31.2515 14.3497 32.6781 7.06285 31.4563 5.50152C29.9185 3.5366 27.7472 2.51039 25.0021 2.45106C22.9697 2.40731 21.3542 2.92629 21.0901 3.0168L21.0236 3.04387C20.7581 3.12727 20.5544 2.9818 20.4776 2.81172C20.4337 2.71428 20.4271 2.60417 20.4589 2.50217C20.4907 2.40016 20.5587 2.31332 20.6501 2.25801C20.6627 2.25063 20.7026 2.23367 20.7674 2.20988C21.2161 2.04555 22.8562 1.55336 24.8876 1.5766C27.9249 1.60887 30.434 2.78 32.1429 4.96395C32.9515 5.99727 32.9534 8.37781 32.1481 11.4955C31.3273 14.6743 29.7826 18.0903 27.9107 20.8682C27.827 20.9931 27.6892 21.0604 27.5489 21.0604ZM27.7567 23.8522C27.0627 23.8522 26.4407 23.7543 26.0683 23.5312C25.6854 23.3018 25.6124 22.99 25.6029 22.8246C25.4984 20.9898 26.5107 20.6705 27.0269 20.5247C26.955 20.4159 26.8527 20.2879 26.7469 20.1559C26.4459 19.7796 26.0335 19.2645 25.7158 18.4939C25.666 18.3736 25.5102 18.0939 25.3297 17.7698C24.3511 16.0149 22.3148 12.3632 23.6229 10.4931C24.2283 9.6277 25.4339 9.28699 27.2101 9.47703C26.6876 7.88508 24.1993 2.90523 18.295 2.80844C16.5193 2.77891 15.0629 3.32496 13.9686 4.42992C11.5186 6.90426 11.6072 11.3813 11.6086 11.4261C11.6101 11.4834 11.6003 11.5404 11.5798 11.5939C11.5593 11.6474 11.5284 11.6963 11.489 11.7379C11.4496 11.7794 11.4023 11.8128 11.35 11.8361C11.2976 11.8594 11.2412 11.8722 11.184 11.8737C11.1267 11.8752 11.0697 11.8654 11.0162 11.8449C10.9627 11.8244 10.9138 11.7935 10.8722 11.7541C10.8306 11.7147 10.7972 11.6674 10.7739 11.6151C10.7506 11.5628 10.7378 11.5063 10.7363 11.4491C10.7309 11.2503 10.6395 6.55207 13.3488 3.81578C14.6167 2.53527 16.2858 1.90309 18.3095 1.93617C22.0867 1.99824 24.5181 3.91859 25.8924 5.51848C27.3906 7.26219 28.1251 9.18555 28.1855 9.82758C28.2306 10.305 27.888 10.4004 27.8188 10.4146L27.6613 10.4182C25.9181 10.139 24.7998 10.3329 24.3374 10.9935C23.3424 12.4157 25.2687 15.87 26.0912 17.3452C26.3012 17.7214 26.4527 17.9935 26.5222 18.1614C26.7923 18.8166 27.1448 19.2568 27.4278 19.6106C27.6769 19.9218 27.8926 20.1917 27.9697 20.5083C28.0056 20.5712 28.5139 21.3232 31.5302 20.7005C32.2862 20.5447 32.7396 20.6779 32.8782 21.097C33.1508 21.9214 31.6212 22.8831 30.7744 23.2763C30.0156 23.6291 28.8045 23.8522 27.7567 23.8522ZM26.4727 22.7527C26.5684 22.8492 27.0472 23.0157 28.0386 22.9731C28.9202 22.9354 29.8499 22.7437 30.4077 22.4847C31.1211 22.1533 31.5974 21.7828 31.8441 21.5299L31.7074 21.555C29.7788 21.9532 28.4146 21.9001 27.6528 21.3973C27.6016 21.3634 27.5524 21.3268 27.5052 21.2876C27.4226 21.3202 27.3463 21.3415 27.2919 21.3568C26.8599 21.4779 26.4131 21.6034 26.4727 22.7527ZM14.0143 25.1904C13.5352 25.1904 13.031 25.125 12.5161 24.9963C11.9827 24.8628 11.0833 24.4611 11.097 23.8013C11.1126 23.0611 12.1891 22.8391 12.5943 22.7557C14.0583 22.4541 14.1538 22.3332 14.6112 21.7522C14.7447 21.5829 14.9106 21.3721 15.137 21.1195C15.4731 20.7432 15.8403 20.5526 16.2286 20.5526C16.499 20.5526 16.7208 20.6442 16.8674 20.7052C17.3344 20.8988 17.724 21.3669 17.8843 21.9266C18.0289 22.4317 17.9597 22.9179 17.6901 23.2955C16.805 24.535 15.5338 25.1904 14.0143 25.1904ZM12.0395 23.8388C12.1711 23.9405 12.4347 24.0764 12.7281 24.1497C13.174 24.2613 13.6066 24.3179 14.0146 24.3179C15.2576 24.3179 16.2557 23.8032 16.9806 22.7882C17.1318 22.5766 17.0864 22.3078 17.0459 22.1664C16.9611 21.8703 16.7506 21.601 16.5338 21.511C16.4162 21.4623 16.3186 21.4252 16.2289 21.4252C16.1808 21.4252 16.0342 21.4252 15.7876 21.7011C15.6174 21.8925 15.4537 22.0896 15.297 22.2922C14.7272 23.0157 14.466 23.2613 12.7707 23.6105C12.357 23.6952 12.1448 23.7816 12.0395 23.8388ZM15.3943 21.8263C15.2902 21.8261 15.1895 21.7887 15.1106 21.7208C15.0316 21.6529 14.9795 21.559 14.9637 21.4561C14.9528 21.3836 14.9455 21.3107 14.9418 21.2376C13.8306 21.2168 12.7584 20.7399 11.9444 19.8906C10.9152 18.8168 10.4468 17.3291 10.6595 15.809C10.8906 14.1583 10.8042 12.7011 10.7577 11.9183C10.7448 11.7006 10.7355 11.5434 10.7361 11.4346C10.7369 11.2965 10.7396 10.9304 11.9635 10.3099C12.3988 10.0893 13.2717 9.70426 14.2251 9.60555C15.8048 9.44231 16.846 10.1459 17.1577 11.5869C17.9991 15.4773 17.2245 17.1981 16.6587 18.4548C16.5534 18.6889 16.4539 18.9098 16.3743 19.1239L16.3041 19.3126C16.0052 20.114 15.7468 20.8064 15.8261 21.3234C15.8348 21.3801 15.8323 21.4379 15.8186 21.4935C15.805 21.5492 15.7805 21.6016 15.7466 21.6478C15.7127 21.694 15.6701 21.733 15.6211 21.7627C15.5721 21.7924 15.5177 21.8121 15.4611 21.8208L15.3943 21.8263ZM11.6113 11.5554L11.6283 11.8669C11.6764 12.6801 11.7661 14.1933 11.5233 15.9302C11.348 17.1839 11.7308 18.4075 12.5741 19.2869C13.2405 19.982 14.1174 20.3656 15.0186 20.3656H15.0372C15.1381 19.9404 15.3058 19.4914 15.4862 19.0077L15.5559 18.8201C15.6459 18.5784 15.7512 18.3443 15.8627 18.0966C16.4072 16.8869 17.085 15.3811 16.3043 11.7714C16.1499 11.0564 15.775 10.6427 15.1589 10.5063C13.8934 10.2268 12.0076 11.1786 11.6113 11.5554ZM14.2445 11.3703C14.2227 11.5245 14.527 11.9363 14.924 11.9913C15.3202 12.0468 15.6593 11.7247 15.6809 11.5705C15.7025 11.4163 15.3984 11.2462 15.0014 11.1909C14.6047 11.1357 14.2656 11.2161 14.2445 11.3703ZM15.0151 12.143L14.9038 12.1354C14.6577 12.1012 14.4089 11.9462 14.2385 11.7203C14.1786 11.641 14.081 11.4873 14.1004 11.3501C14.1281 11.1488 14.3736 11.0282 14.7567 11.0282C14.8423 11.0282 14.9314 11.0345 15.0211 11.0471C15.2306 11.0761 15.425 11.1365 15.5685 11.2166C15.8174 11.3555 15.8357 11.5106 15.8245 11.5907C15.7938 11.813 15.4403 12.143 15.0151 12.143ZM14.3892 11.396C14.4015 11.4912 14.6372 11.8051 14.944 11.8475L15.0154 11.8524C15.2986 11.8524 15.5103 11.6295 15.5352 11.5565C15.5089 11.5068 15.3268 11.3832 14.9815 11.335C14.9071 11.3244 14.8321 11.319 14.757 11.3189C14.5349 11.3189 14.4171 11.3689 14.3892 11.396ZM26.3124 11.0556C26.334 11.2098 26.03 11.6216 25.6332 11.6768C25.2367 11.7321 24.8974 11.4102 24.8755 11.256C24.8547 11.1018 25.1588 10.9314 25.5553 10.8765C25.9518 10.821 26.2906 10.9016 26.3124 11.0556ZM25.5416 11.7556C25.1599 11.7556 24.8304 11.4586 24.8033 11.2659C24.7719 11.0345 25.1528 10.8587 25.5449 10.8043C25.6313 10.7923 25.7169 10.7863 25.7992 10.7863C26.1377 10.7863 26.3619 10.8855 26.3843 11.0457C26.3988 11.1494 26.3193 11.3093 26.1823 11.4537C26.0918 11.5486 25.9017 11.7129 25.6428 11.7487L25.5416 11.7556ZM25.7995 10.9317C25.724 10.9317 25.6452 10.9375 25.5654 10.9484C25.1714 11.0034 24.9362 11.1614 24.9477 11.2462C24.9608 11.3394 25.2124 11.6104 25.5419 11.6104L25.6231 11.6046C25.8383 11.5748 25.9999 11.4343 26.077 11.3534C26.1981 11.2262 26.2463 11.1064 26.2405 11.0657C26.2329 11.0116 26.0874 10.9317 25.7995 10.9317ZM26.8836 19.9122C26.8046 19.9123 26.727 19.8908 26.6592 19.8502C26.5914 19.8095 26.536 19.7512 26.4988 19.6814C26.4616 19.6117 26.4441 19.5331 26.4481 19.4542C26.4521 19.3753 26.4775 19.2989 26.5216 19.2333C27.4508 17.8456 27.2807 16.4305 27.1163 15.062C27.0461 14.479 26.9739 13.8761 26.9925 13.2975C27.0116 12.7022 27.0874 12.2111 27.1604 11.7362C27.247 11.1734 27.3291 10.6419 27.2952 10.0108C27.2921 9.95358 27.3003 9.89633 27.3193 9.8423C27.3384 9.78827 27.3679 9.73852 27.4061 9.69589C27.4444 9.65326 27.4907 9.61858 27.5423 9.59384C27.594 9.56909 27.65 9.55477 27.7072 9.55168C27.7644 9.54859 27.8217 9.5568 27.8757 9.57584C27.9298 9.59488 27.9795 9.62437 28.0221 9.66263C28.1082 9.73991 28.1601 9.84823 28.1663 9.96375C28.2052 10.6851 28.1125 11.2866 28.0228 11.8688C27.9536 12.318 27.882 12.7826 27.8647 13.3254C27.8481 13.8378 27.9134 14.382 27.9826 14.9578C28.1576 16.413 28.3558 18.0624 27.2468 19.7186C27.2068 19.7783 27.1528 19.8271 27.0895 19.8609C27.0261 19.8947 26.9554 19.9123 26.8836 19.9122Z" fill="white"/>
</svg>
