<svg width="35" height="35" viewBox="0 0 35 35" fill="none" xmlns="http://www.w3.org/2000/svg">
<path d="M17.3742 2.29682C9.60859 2.29682 10.0997 5.65463 10.0997 5.65463V9.14369H17.4847V10.2374H7.15859C7.15859 10.2374 2.1875 9.62494 2.1875 17.5054C2.1875 25.3859 6.57672 25.0654 6.57672 25.0654H9.11094V21.3893C9.11094 21.3893 8.96875 17.0001 13.3766 17.0001H20.7725C20.7725 17.0001 24.8981 17.0657 24.8981 13.0057V6.34369C24.8981 6.34369 25.5238 2.28369 17.4147 2.28369L17.3742 2.29682ZM13.2923 4.63416C13.5549 4.62754 13.8135 4.69892 14.0355 4.83928C14.2574 4.97964 14.4328 5.18267 14.5394 5.4227C14.646 5.66273 14.679 5.92897 14.6342 6.18776C14.5895 6.44655 14.469 6.68625 14.288 6.87657C14.1071 7.06688 13.8737 7.19925 13.6175 7.25694C13.3613 7.31462 13.0937 7.29503 12.8486 7.20065C12.6035 7.10626 12.392 6.94131 12.2406 6.72667C12.0893 6.51203 12.005 6.25733 11.9984 5.99479V5.97291C11.9984 5.62075 12.1383 5.28302 12.3873 5.034C12.6364 4.78499 12.9741 4.6451 13.3263 4.6451L13.2923 4.63416Z" fill="url(#paint0_linear_2415_337)"/>
<path d="M17.5929 32.7141C25.3585 32.7141 24.8674 29.3453 24.8674 29.3453V25.8672H17.4835V24.7734H27.8414C27.8414 24.7734 32.8124 25.3291 32.8124 17.4945C32.8124 9.66 28.4232 9.93453 28.4232 9.93453H25.8562V13.5625C25.8562 13.5625 25.9984 17.9517 21.5906 17.9517H14.1914C14.1914 17.9517 10.0624 17.8894 10.0624 21.9494V28.6562C10.0624 28.6562 9.43682 32.7162 17.5459 32.7162H17.5896L17.5929 32.7141ZM21.6748 30.3658C21.4122 30.3724 21.1536 30.301 20.9317 30.1607C20.7097 30.0203 20.5343 29.8173 20.4277 29.5772C20.3212 29.3372 20.2882 29.071 20.3329 28.8122C20.3776 28.5534 20.4981 28.3137 20.6791 28.1234C20.8601 27.9331 21.0934 27.8007 21.3497 27.743C21.6059 27.6853 21.8734 27.7049 22.1185 27.7993C22.3636 27.8937 22.5752 28.0586 22.7265 28.2733C22.8778 28.4879 22.9621 28.7426 22.9687 29.0051V29.038C22.9687 29.3901 22.8288 29.7279 22.5798 29.9769C22.3308 30.2259 21.993 30.3658 21.6409 30.3658H21.6748Z" fill="url(#paint1_linear_2415_337)"/>
<defs>
<linearGradient id="paint0_linear_2415_337" x1="5.21408" y1="5.27499" x2="19.7464" y2="19.7744" gradientUnits="userSpaceOnUse">
<stop stop-color="#387EB8"/>
<stop offset="1" stop-color="#366994"/>
</linearGradient>
<linearGradient id="paint1_linear_2415_337" x1="13.8113" y1="14.7203" x2="30.4146" y2="29.2153" gradientUnits="userSpaceOnUse">
<stop stop-color="#FFE052"/>
<stop offset="1" stop-color="#FFC331"/>
</linearGradient>
</defs>
</svg>
