<svg width="35" height="31" viewBox="0 0 35 31" fill="none" xmlns="http://www.w3.org/2000/svg">
<path d="M33.6287 23.0976C31.7609 24.0712 22.085 28.0496 20.0251 29.1235C17.9651 30.1976 16.8208 30.1872 15.1934 29.4092C13.5662 28.6313 3.26936 24.4721 1.41449 23.5854C0.487539 23.1425 0 22.7684 0 22.4151V18.8774C0 18.8774 13.4053 15.9591 15.5694 15.1827C17.7334 14.4063 18.4842 14.3782 20.3258 15.0528C22.1677 15.7277 33.1799 17.7145 35 18.3811L34.9992 21.8688C34.9995 22.2185 34.5795 22.6022 33.6287 23.0976Z" fill="#912626"/>
<path d="M33.628 19.5809C31.7603 20.554 22.0847 24.5325 20.0248 25.6063C17.9649 26.6805 16.8206 26.67 15.1934 25.8921C13.566 25.1147 3.2696 20.9547 1.41487 20.0687C-0.439855 19.182 -0.478683 18.5719 1.34323 17.8585C3.16515 17.1448 13.4051 13.1273 15.5695 12.3509C17.7335 11.5747 18.4842 11.5464 20.3258 12.2213C22.1675 12.8959 31.7854 16.7241 33.6053 17.3906C35.4258 18.0579 35.4957 18.6074 33.628 19.5809Z" fill="#C6302B"/>
<path d="M33.6287 17.3734C31.7609 18.3471 22.085 22.3254 20.0251 23.3997C17.9651 24.4734 16.8208 24.463 15.1934 23.685C13.5661 22.9075 3.26936 18.7478 1.41449 17.8612C0.487539 17.4183 0 17.0447 0 16.6913V13.1532C0 13.1532 13.4053 10.2351 15.5694 9.45863C17.7334 8.68221 18.4842 8.65404 20.3258 9.32875C22.1679 10.0035 33.18 11.9898 35 12.6566L34.9992 16.1447C34.9995 16.4943 34.5795 16.8779 33.6287 17.3734Z" fill="#912626"/>
<path d="M33.628 13.8565C31.7603 14.83 22.0847 18.8082 20.0248 19.8824C17.9649 20.9562 16.8206 20.9457 15.1934 20.1678C13.566 19.3904 3.2696 15.2306 1.41487 14.3444C-0.439855 13.458 -0.478683 12.8477 1.34323 12.134C3.16515 11.4208 13.4052 7.40301 15.5695 6.62672C17.7335 5.85043 18.4842 5.82227 20.3258 6.49698C22.1675 7.17155 31.7854 10.9995 33.6053 11.6663C35.4258 12.3335 35.4957 12.8831 33.628 13.8565Z" fill="#C6302B"/>
<path d="M33.6287 11.437C31.7609 12.4104 22.085 16.3889 20.0251 17.4633C17.9651 18.5371 16.8208 18.5265 15.1934 17.7486C13.5661 16.9711 3.26936 12.8113 1.41449 11.9251C0.487539 11.4817 0 11.108 0 10.755V7.21675C0 7.21675 13.4053 4.29876 15.5694 3.52247C17.7334 2.74591 18.4842 2.71802 20.3258 3.39259C22.1679 4.06729 33.18 6.05368 35 6.72046L34.9992 10.2084C34.9995 10.5577 34.5795 10.9414 33.6287 11.437Z" fill="#912626"/>
<path d="M33.6279 7.9201C31.7602 8.89354 22.0846 12.8721 20.0247 13.9458C17.9649 15.0196 16.8205 15.0091 15.1933 14.2316C13.5661 13.4537 3.26953 9.29413 1.41494 8.40778C-0.439923 7.52157 -0.478615 6.91112 1.34316 6.19759C3.16508 5.48419 13.4052 1.46698 15.5694 0.690417C17.7334 -0.0860088 18.4841 -0.113899 20.3257 0.560808C22.1675 1.23551 31.7854 5.0635 33.6052 5.73028C35.4258 6.39692 35.4956 6.94667 33.6279 7.9201Z" fill="#C6302B"/>
<path d="M21.7769 4.47854L18.7677 4.79094L18.0941 6.41188L17.0061 4.60309L13.5314 4.29083L16.1241 3.35581L15.3462 1.92053L17.7736 2.86991L20.062 2.12069L19.4435 3.60477L21.7769 4.47854ZM17.9145 12.3423L12.2985 10.0131L20.3457 8.7778L17.9145 12.3423ZM10.1283 5.37952C12.5038 5.37952 14.4295 6.126 14.4295 7.04666C14.4295 7.9676 12.5038 8.71395 10.1283 8.71395C7.75283 8.71395 5.82715 7.96746 5.82715 7.04666C5.82715 6.126 7.75283 5.37952 10.1283 5.37952Z" fill="white"/>
<path d="M25.3333 4.92163L30.096 6.8037L25.3374 8.68399L25.3333 4.92163Z" fill="#621B1C"/>
<path d="M20.0642 7.00591L25.3333 4.92163L25.3375 8.68399L24.8208 8.88606L20.0642 7.00591Z" fill="#9A2928"/>
</svg>
