<svg width="35" height="35" viewBox="0 0 35 35" fill="none" xmlns="http://www.w3.org/2000/svg">
<g clip-path="url(#clip0_2415_340)">
<mask id="mask0_2415_340" style="mask-type:luminance" maskUnits="userSpaceOnUse" x="0" y="0" width="35" height="35">
<path d="M26.7969 0H8.20312C3.67266 0 0 3.67266 0 8.20312V26.7969C0 31.3273 3.67266 35 8.20312 35H26.7969C31.3273 35 35 31.3273 35 26.7969V8.20312C35 3.67266 31.3273 0 26.7969 0Z" fill="white"/>
</mask>
<g mask="url(#mask0_2415_340)">
<path d="M8.20312 0C3.67268 0 0 3.67268 0 8.20312V26.7969C0 31.3273 3.67268 35 8.20312 35H23.0316C22.7884 34.2832 22.598 33.148 22.4908 31.8523C22.3985 30.7378 22.3679 29.5047 22.419 28.3154C22.4052 28.1396 22.3969 28.0253 22.3969 28.0253C22.3969 28.0253 22.1406 26.3013 21.7719 24.885C21.6087 24.2564 21.4229 23.6879 21.2278 23.3584C21.1273 23.1885 21.2387 22.4901 21.5191 21.4558C21.6832 21.739 22.3754 22.9504 22.5144 23.3409C22.671 23.7822 22.7038 23.9087 22.7038 23.9087C22.7038 23.9087 22.3241 21.9574 21.7012 20.8188C21.853 20.3115 22.0144 19.8071 22.1855 19.3059C22.4012 19.6842 22.8916 20.5529 23.0688 20.9646C23.0852 21.0027 23.1 21.0386 23.1108 21.0681C23.136 21.1395 23.1571 21.2 23.1762 21.2555C23.2761 21.5451 23.3004 21.6372 23.3004 21.6372C23.3004 21.6372 23.2634 21.4478 23.1945 21.1554C23.1654 21.032 23.1291 20.8868 23.0888 20.7322C22.9318 20.1294 22.6934 19.3402 22.3881 18.7219C23.1718 14.6485 25.6941 9.31465 28.4115 6.43521C28.6457 6.18721 28.881 5.9552 29.1167 5.74602C30.7053 4.33781 32.3148 3.86203 33.6442 5.04629C34.6058 5.90311 34.9993 7.08682 35 8.44922V8.20312C35 3.67268 31.3273 0 26.7969 0H8.20312Z" fill="#D9D9D9"/>
<path d="M8.20312 0C3.67268 0 0 3.67268 0 8.20312V26.7969C0 31.3273 3.67268 35 8.20312 35H23.0316C22.7884 34.2832 22.598 33.148 22.4908 31.8523C22.3985 30.7378 22.3679 29.5047 22.419 28.3154C22.4052 28.1396 22.3969 28.0253 22.3969 28.0253C22.3969 28.0253 22.1406 26.3013 21.7719 24.885C21.6087 24.2564 21.4229 23.6879 21.2278 23.3584C21.1273 23.1885 21.2387 22.4901 21.5191 21.4558C21.6832 21.739 22.3754 22.9504 22.5144 23.3409C22.671 23.7822 22.7038 23.9087 22.7038 23.9087C22.7038 23.9087 22.3241 21.9574 21.7012 20.8188C21.853 20.3115 22.0144 19.8071 22.1855 19.3059C22.4012 19.6842 22.8916 20.5529 23.0688 20.9646C23.0852 21.0027 23.1 21.0386 23.1108 21.0681C23.136 21.1395 23.1571 21.2 23.1762 21.2555C23.2761 21.5451 23.3004 21.6372 23.3004 21.6372C23.3004 21.6372 23.2634 21.4478 23.1945 21.1554C23.1654 21.032 23.1291 20.8868 23.0888 20.7322C22.9318 20.1294 22.6934 19.3402 22.3881 18.7219C23.1718 14.6485 25.6941 9.31465 28.4115 6.43521C28.6457 6.18721 28.881 5.9552 29.1167 5.74602C30.7053 4.33781 32.3148 3.86203 33.6442 5.04629C34.6058 5.90311 34.9993 7.08682 35 8.44922V8.20312C35 3.67268 31.3273 0 26.7969 0H8.20312Z" fill="url(#paint0_linear_2415_340)"/>
<path d="M33.6442 5.04631C32.3148 3.86205 30.7053 4.33769 29.1167 5.74603C28.881 5.95521 28.6457 6.18722 28.4115 6.43509C25.6941 9.3148 23.1718 14.6485 22.3881 18.7219C22.6934 19.3403 22.9318 20.1294 23.0888 20.7322C23.1291 20.8868 23.1654 21.032 23.1945 21.1555C23.2634 21.4478 23.3004 21.6373 23.3004 21.6373C23.3004 21.6373 23.2761 21.5451 23.1762 21.2555C23.1571 21.2 23.136 21.1395 23.1108 21.0681C23.0977 21.0332 23.0837 20.9987 23.0688 20.9646C22.8916 20.5529 22.4012 19.6842 22.1855 19.3059C22.0144 19.8071 21.853 20.3115 21.7012 20.8189C22.3241 21.9575 22.7038 23.9087 22.7038 23.9087C22.7038 23.9087 22.671 23.7822 22.5144 23.3409C22.3754 22.9504 21.6832 21.739 21.5191 21.4558C21.2387 22.4901 21.1273 23.1885 21.2278 23.3584C21.4229 23.6879 21.6087 24.2564 21.7719 24.885C22.1406 26.3013 22.3969 28.0253 22.3969 28.0253C22.3969 28.0253 22.4052 28.1396 22.419 28.3154C22.3679 29.5047 22.3985 30.7378 22.4908 31.8523C22.6129 33.3277 22.8428 34.5952 23.136 35.2735L23.3349 35.165C22.9045 33.8287 22.7296 32.0774 22.8062 30.0575C22.922 26.9703 23.6333 23.2471 24.9475 19.3666C27.1678 13.5086 30.2483 8.80867 33.0678 6.56402C30.498 8.88222 27.02 16.3858 25.9789 19.1644C24.8132 22.276 23.987 25.1961 23.4892 27.9936C24.3482 25.3709 27.1257 24.2435 27.1257 24.2435C27.1257 24.2435 28.4879 22.5654 30.0799 20.1679C29.1263 20.3852 27.5604 20.7571 27.0359 20.9772C26.2623 21.3013 26.0538 21.412 26.0538 21.412C26.0538 21.412 28.5599 19.8875 30.7099 19.1974C33.6669 14.5455 36.8882 7.93695 33.6442 5.04631ZM3.89922 6.69924C3.48045 6.69924 3.13988 6.8216 2.87889 7.06605C2.61775 7.31078 2.48541 7.63166 2.48541 8.02472C2.48541 8.22843 2.51822 8.4141 2.58303 8.58431C2.64783 8.7548 2.74873 8.91285 2.88422 9.05558C3.01984 9.19845 3.29123 9.39259 3.69578 9.63937C4.19207 9.93824 4.51678 10.1808 4.67264 10.3703C4.82863 10.5596 4.90602 10.758 4.90602 10.9647C4.90602 11.2417 4.81373 11.4627 4.62383 11.6289C4.43365 11.795 4.17936 11.8777 3.86395 11.8777C3.53131 11.8777 3.2416 11.7622 2.99277 11.5324C2.74395 11.3024 2.61844 10.9981 2.61557 10.6166H2.46094V12.0012H2.61557C2.66287 11.8701 2.72822 11.8029 2.81381 11.8029C2.85482 11.8029 2.95121 11.831 3.10146 11.8833C3.46664 12.0116 3.7666 12.0734 4.00244 12.0734C4.40863 12.0734 4.75549 11.9331 5.04451 11.6476C5.33299 11.3624 5.47873 11.0185 5.47873 10.6168C5.47873 10.3053 5.38248 10.0282 5.19381 9.78675C5.005 9.5449 4.63791 9.26367 4.08912 8.94046C3.61717 8.66074 3.31064 8.43283 3.16928 8.25509C3.02764 8.07763 2.9549 7.88144 2.9549 7.66597C2.9549 7.433 3.04158 7.24597 3.21262 7.10638C3.38379 6.96666 3.60787 6.89748 3.88842 6.89748C4.2041 6.89748 4.46715 6.9899 4.67537 7.17597C4.88332 7.36232 5.00363 7.62058 5.03904 7.95254H5.19381V6.75297H5.04984C5.03234 6.81408 5.01607 6.85318 5.00103 6.87068C4.98654 6.88818 4.95852 6.89748 4.91695 6.89748C4.86691 6.89748 4.77764 6.8767 4.65104 6.83595C4.37965 6.74572 4.12945 6.69924 3.89922 6.69924ZM8.95508 6.69937C8.44471 6.69937 7.9815 6.81804 7.56287 7.05552C7.14369 7.29259 6.81188 7.62154 6.56687 8.04086C6.32215 8.46004 6.20047 8.90533 6.20047 9.37974C6.20047 10.0171 6.41197 10.5851 6.83826 11.0827C7.26482 11.5801 7.77588 11.89 8.36883 12.0093C8.50445 12.079 8.69832 12.2589 8.95234 12.5501C9.2385 12.8788 9.48063 13.1159 9.67969 13.2569C9.87467 13.3956 10.091 13.5014 10.3201 13.5703C10.5472 13.6385 10.7927 13.672 11.0584 13.672C11.3798 13.672 11.6677 13.6169 11.9212 13.5033L11.8643 13.3641C11.7134 13.4168 11.5546 13.443 11.3948 13.4418C11.1703 13.4418 10.9437 13.3688 10.7163 13.2222C10.4893 13.0753 10.2055 12.795 9.86686 12.3814C9.70771 12.1832 9.59793 12.0582 9.53586 12.0093C10.1846 11.8842 10.7182 11.5739 11.1342 11.0774C11.5503 10.5811 11.7584 10.0145 11.7584 9.37974C11.7584 8.62588 11.4866 7.99246 10.9469 7.47593C10.407 6.959 9.74285 6.69937 8.95508 6.69937ZM12.1112 6.69924L12.1194 6.86261C12.459 6.86261 12.6494 6.96132 12.692 7.15984C12.7077 7.23093 12.7151 7.36191 12.7163 7.55086L12.7136 11.163C12.7109 11.4327 12.6719 11.605 12.597 11.6798C12.5219 11.754 12.3952 11.8003 12.2116 11.8189L12.2034 11.9823H15.5903L15.6771 11.163H15.5225C15.4783 11.3861 15.377 11.5461 15.2158 11.6368C15.0541 11.7284 14.7684 11.7736 14.3555 11.7736H14.0353C13.6638 11.7736 13.4489 11.6409 13.3921 11.3743C13.3807 11.318 13.3752 11.2605 13.3757 11.203L13.3894 7.55072C13.3894 7.28138 13.4239 7.10091 13.4952 7.01246C13.5674 6.92455 13.6976 6.87519 13.886 6.86261L13.8779 6.69924H12.1112ZM9.00936 6.89748C9.58494 6.89748 10.0548 7.12101 10.4178 7.57218C10.7807 8.02336 10.9606 8.64187 10.9606 9.42513C10.9606 10.1672 10.7781 10.7614 10.4124 11.2085C10.0466 11.6553 9.55992 11.8779 8.95494 11.8779C8.37389 11.8779 7.90275 11.6483 7.54127 11.187C7.17992 10.7257 7.00123 10.1268 7.00123 9.39027C7.00123 8.63353 7.18211 8.02759 7.5466 7.57478C7.91096 7.12252 8.39877 6.89748 9.00936 6.89748ZM16.7979 7.67377C16.7154 7.67377 16.6523 7.70125 16.6053 7.75675C16.5571 7.81199 16.5423 7.87898 16.5591 7.96033C16.5754 8.03908 16.6205 8.10826 16.6921 8.1665C16.7634 8.22461 16.8402 8.25482 16.9228 8.25482C17.0026 8.25482 17.0636 8.22461 17.1073 8.1665C17.1511 8.10826 17.1644 8.03922 17.1481 7.96033C17.1311 7.87898 17.0877 7.81199 17.0205 7.75675C16.9526 7.70125 16.8778 7.67377 16.7979 7.67377ZM19.0314 8.22802C18.891 8.76082 18.5868 9.04916 18.1196 9.09564L18.1249 9.24822H18.6705L18.6596 11.0529C18.6605 11.3616 18.67 11.567 18.6922 11.6716C18.7459 11.9218 18.9116 12.049 19.1888 12.049C19.5899 12.049 20.0107 11.808 20.4507 11.3261L20.3178 11.2137C20 11.5309 19.7191 11.6903 19.4738 11.6903C19.323 11.6903 19.2295 11.6047 19.1942 11.436C19.1842 11.3885 19.1797 11.3399 19.1807 11.2913L19.1862 9.24822H20.0192L20.0111 9.00459H19.1888V8.22802H19.0314ZM22.2526 8.9082C21.7867 8.9082 21.4076 9.13132 21.1129 9.57498C20.8197 10.0193 20.7289 10.5115 20.8443 11.0529C20.9121 11.3701 21.0472 11.6162 21.254 11.7894C21.4605 11.9626 21.7224 12.0492 22.0355 12.0492C22.3271 12.0492 22.7332 11.9762 22.9039 11.8295C23.0753 11.6829 23.2332 11.4453 23.3789 11.1199L23.2621 10.9995C23.0297 11.4215 22.5604 11.6341 22.2065 11.6341C21.72 11.6341 21.4221 11.3706 21.311 10.8469C21.296 10.7761 21.2851 10.7046 21.2784 10.6326C21.8572 10.5421 22.2958 10.382 22.592 10.1506C22.8877 9.9191 23.1848 9.67355 23.1293 9.4142C23.0962 9.26011 23.0151 9.13898 22.8904 9.04738C22.7641 8.95578 22.436 8.9082 22.2526 8.9082ZM17.1589 8.92693L16.1548 9.15457V9.33121L16.5021 9.28841C16.6704 9.28841 16.7694 9.36361 16.8007 9.51332C16.8112 9.56349 16.8178 9.63377 16.8197 9.72222L16.8088 11.3422C16.806 11.5664 16.7807 11.6967 16.7301 11.7358C16.679 11.7751 16.5442 11.7946 16.3257 11.7946L16.3203 11.9473H17.9133L17.9106 11.7947C17.6892 11.7947 17.5458 11.7775 17.4818 11.7439C17.4189 11.7104 17.3757 11.6495 17.357 11.5564C17.3425 11.4892 17.3362 11.3735 17.3353 11.2137L17.3407 8.92693H17.1589ZM21.9976 9.22689C22.0946 9.22689 22.1882 9.26381 22.2826 9.33654C22.3755 9.40914 22.4323 9.48994 22.4507 9.57757C22.5416 10.0082 22.1546 10.306 21.2838 10.472C21.2589 10.1579 21.3142 9.87275 21.4549 9.61504C21.5945 9.35759 21.7763 9.22689 21.9976 9.22689Z" fill="#003B57"/>
</g>
</g>
<defs>
<linearGradient id="paint0_linear_2415_340" x1="20.1816" y1="0.71627" x2="20.1816" y2="33.0535" gradientUnits="userSpaceOnUse">
<stop stop-color="#97D9F6"/>
<stop offset="0.92" stop-color="#0F80CC"/>
<stop offset="1" stop-color="#0F80CC"/>
</linearGradient>
<clipPath id="clip0_2415_340">
<rect width="35" height="35" fill="white"/>
</clipPath>
</defs>
</svg>
